<?xml version="1.0" standalone="no"?>
<!DOCTYPE svg PUBLIC "-//W3C//DTD SVG 1.1//EN" "http://www.w3.org/Graphics/SVG/1.1/DTD/svg11.dtd" >
<!--
2013-9-30: Created.
-->
<svg>
<metadata>
Created by iconfont
</metadata>
<defs>

<font id="iconfont" horiz-adv-x="1024" >
  <font-face
    font-family="iconfont"
    font-weight="500"
    font-stretch="normal"
    units-per-em="1024"
    ascent="896"
    descent="-128"
  />
    <missing-glyph />
    
    <glyph glyph-name="sutpc-ditukuangxuan" unicode="&#59009;" d="M174.5 805.875h84.375v-84.375H174.5v-84.375H90.125V805.875h84.375z m0-843.75H90.125v168.75h84.375v-84.375h84.375V-37.875H174.5zM843.47321405 805.875h84.375v-168.75h-84.375V721.5h-84.375V805.875h84.375zM343.25 805.875h126.5625v-84.375H343.25V805.875z m204.91071405 0h126.5625v-84.375H548.16071405V805.875zM343.25 46.5h126.5625V-37.875H343.25v84.375zM174.5 552.75v-126.5625H90.125V552.75h84.375z m0-210.9375v-126.5625H90.125V341.8125h84.375zM933.875 552.75v-126.5625h-84.375V552.75H933.875z m-241.07142893-367.63392893l-114.5089281-128.37053512-30.13392892 453.81696405 379.6875-250.71428595-168.75-34.3526781 132.58928595-222.9910719-72.32142893-40.37946405z m0 1e-8"  horiz-adv-x="1024" />

    
    <glyph glyph-name="sutpc-dituduodianxuan" unicode="&#59012;" d="M1024 193.828571L621.714286 464.457143l29.257143-482.742857 124.342857 138.971428 138.971428-241.371428 73.142857 43.885714-138.971428 241.371429 175.542857 29.257142zM343.771429 691.2l-43.885715 109.714286-212.114285-73.142857 117.028571-87.771429 138.971429 51.2z m234.057142 21.942857L643.657143 844.8 365.714286 822.857143l43.885714-109.714286h168.228571zM716.8 603.428571L804.571429 691.2 687.542857 830.171429l-51.2-124.342858L716.8 603.428571z m153.6-175.542857l95.085714 80.457143-117.028571 138.971429-87.771429-87.771429 109.714286-131.657143z m-731.428571-73.142857l-124.342858-21.942857 58.514286-212.114286 109.714286 65.828572-43.885714 168.228571z m248.685714-446.171428l182.857143-29.257143 80.457143 95.085714-160.914286 14.628571-102.4-80.457142z m-153.6 234.057142l-102.4-73.142857 21.942857-21.942857 182.857143-95.085714 102.4 73.142857-204.8 117.028571z m-102.4 438.857143L7.314286 705.828571l7.314285-14.628571H7.314286l-7.314286-292.571429 124.342857 21.942858 7.314286 160.914285z"  horiz-adv-x="1024" />

    
    <glyph glyph-name="sutpc-ditujietu" unicode="&#59013;" d="M972.8 120.685714h-36.571429V727.771429c0 29.257143-21.942857 58.514286-51.2 58.514285H204.8V822.857143c0 29.257143-21.942857 58.514286-51.2 58.514286-36.571429 0-58.514286-29.257143-58.514286-58.514286v-43.885714H51.2c-29.257143 0-51.2-21.942857-51.2-51.2 0-29.257143 21.942857-58.514286 51.2-58.514286h36.571429v-599.771429c0-29.257143 21.942857-58.514286 51.2-58.514285h672.914285v-43.885715c0-29.257143 21.942857-58.514286 51.2-58.514285s51.2 29.257143 51.2 51.2v43.885714h36.571429c29.257143 0 51.2 29.257143 51.2 58.514286 21.942857 36.571429 0 58.514286-29.257143 58.514285z m-153.6 0H204.8V669.257143h614.4v-548.571429zM416.914286 457.142857c36.571429 0 58.514286 29.257143 58.514285 65.828572s-29.257143 65.828571-58.514285 65.828571c-36.571429 0-58.514286-29.257143-58.514286-65.828571-7.314286-36.571429 21.942857-65.828571 58.514286-65.828572zM277.942857 215.771429l475.428572-7.314286c7.314286 0 7.314286 7.314286 7.314285 7.314286 7.314286 0 7.314286 7.314286 0 7.314285L680.228571 449.828571c0 7.314286-7.314286 14.628571-14.628571 14.628572S658.285714 457.142857 650.971429 457.142857L555.885714 310.857143c0-7.314286-14.628571-7.314286-14.628571-7.314286L380.342857 391.314286c-7.314286 0-14.628571 0-21.942857-7.314286L263.314286 237.714286v-14.628572c0-7.314286 7.314286-7.314286 14.628571-7.314285z"  horiz-adv-x="1024" />

    
    <glyph glyph-name="sutpc-biaoge" unicode="&#59015;" d="M145.57142832 641.14285752c45 0 83.57142832 32.14285752 83.5714292 77.14285664S190.57142832 801.85714248 145.57142832 801.85714248C100.57142832 801.85714248 62 763.28571416 62 718.28571416S100.57142832 641.14285752 145.57142832 641.14285752zM512 641.14285752c45 0 83.57142832 38.57142832 83.57142832 83.57142832S557 801.85714248 512 801.85714248s-83.57142832-38.57142832-83.57142832-83.57142832S467 641.14285752 512 641.14285752z m366.42857168 0c45 0 83.57142832 38.57142832 83.57142832 83.57142832S923.42857168 808.28571416 878.42857168 808.28571416c-45 0-83.57142832-38.57142832-83.5714292-83.57142832S833.42857168 641.14285752 878.42857168 641.14285752z m19.28571416-141.42857168H126.28571416c-32.14285752 0-64.28571416-25.71428584-64.28571416-64.28571416 0-32.14285752 25.71428584-64.28571416 64.28571416-64.28571416h771.42857168c32.14285752 0 64.28571416 25.71428584 64.28571416 64.28571416-6.42857168 38.57142832-32.14285752 64.28571416-64.28571416 64.28571416z m0-205.71428584H126.28571416c-32.14285752 0-64.28571416-25.71428584-64.28571416-64.28571416 0-32.14285752 25.71428584-64.28571416 64.28571416-64.28571416h771.42857168c32.14285752 0 64.28571416 25.71428584 64.28571416 64.28571416-6.42857168 38.57142832-32.14285752 64.28571416-64.28571416 64.28571416z m0-205.71428584H126.28571416c-32.14285752 0-64.28571416-25.71428584-64.28571416-64.28571416 0-32.14285752 25.71428584-64.28571416 64.28571416-64.28571416h771.42857168c32.14285752 0 64.28571416 25.71428584 64.28571416 64.28571416-6.42857168 38.57142832-32.14285752 64.28571416-64.28571416 64.28571416z"  horiz-adv-x="1024" />

    
    <glyph glyph-name="sutpc-ditutuceng" unicode="&#59017;" d="M109.714286 435.2L512 230.4l402.285714 197.485714c14.628571 7.314286 36.571429 7.314286 51.2 0 14.628571-7.314286 21.942857-29.257143 21.942857-51.2 0-21.942857-14.628571-36.571429-29.257142-43.885714l-424.228572-212.114286c-14.628571-7.314286-29.257143-7.314286-43.885714 0L65.828571 332.8c-29.257143 14.628571-36.571429 51.2-29.257142 73.142857 14.628571 29.257143 51.2 36.571429 73.142857 29.257143z m0-219.428571L512 18.285714l402.285714 197.485715c14.628571 7.314286 36.571429 7.314286 51.2 0 14.628571-7.314286 21.942857-29.257143 21.942857-51.2 0-21.942857-14.628571-36.571429-29.257142-43.885715l-424.228572-212.114285c-14.628571-7.314286-29.257143-7.314286-43.885714 0L65.828571 120.685714c-21.942857 14.628571-36.571429 43.885714-21.942857 73.142857 7.314286 29.257143 43.885714 36.571429 65.828572 21.942858z m95.085714 380.342857L512 442.514286l307.2 153.6L512 749.714286 204.8 596.114286zM533.942857 859.428571l424.228572-212.114285c14.628571-7.314286 29.257143-29.257143 29.257142-51.2 0-21.942857-14.628571-36.571429-29.257142-51.2L533.942857 332.8c-14.628571-7.314286-29.257143-7.314286-43.885714 0l-424.228572 219.428571c-21.942857 7.314286-29.257143 21.942857-29.257142 43.885715s14.628571 36.571429 29.257142 51.2L490.057143 859.428571c14.628571 7.314286 29.257143 7.314286 43.885714 0z m0 0"  horiz-adv-x="1024" />

    
    <glyph glyph-name="xianshiyincangzhoubian" unicode="&#58948;" d="M512 520.53333333c75.09333333 0 136.53333333-61.44 136.53333333-136.53333333s-61.44-136.53333333-136.53333333-136.53333333-136.53333333 61.44-136.53333333 136.53333333 61.44 136.53333333 136.53333333 136.53333333zM750.93333333 861.86666667H580.26666667v-102.4h109.22666666l61.44-122.88 81.92 61.44zM443.73333333 8.533333330000005H334.50666667l-61.44 122.88-81.92-61.44L273.06666667-93.86666666999997H443.73333333zM273.06666667 636.58666667l61.44 122.88H443.73333333V861.86666667H273.06666667L191.14666667 698.0266666699999zM211.62666667 513.70666667l-81.92 61.44L34.13333333 384l95.57333334-191.14666667 81.92 61.44L150.18666667 384zM812.37333333 254.29333333l81.92-61.44L989.86666667 384l-95.57333334 191.14666667-81.92-61.44 61.44-129.70666667zM750.93333333 131.41333333l-61.44-122.88H580.26666667V-93.86666666999997h170.66666666l81.92 163.84z"  horiz-adv-x="1024" />

    
    <glyph glyph-name="sutpc-guidaojiaotong" unicode="&#58949;" d="M364.8 243.2c25.6 0 51.2 19.2 51.2 44.8 0 25.6-19.2 44.8-51.2 44.8-25.6 0-51.2-19.2-51.2-44.8 0-25.6 19.2-44.8 51.2-44.8z m300.8 0c25.6 0 51.2 19.2 51.2 44.8 0 25.6-19.2 44.8-51.2 44.8-25.6 0-51.2-19.2-51.2-44.8 0-25.6 19.2-44.8 51.2-44.8zM928 832h-832v-723.2h185.6L198.4 0c-12.8-19.2-12.8-44.8 12.8-57.6 6.4-6.4 19.2-6.4 25.6-6.4 12.8 0 25.6 6.4 38.4 19.2l121.6 160h236.8l121.6-160c6.4-12.8 19.2-19.2 38.4-19.2 6.4 0 19.2 0 25.6 6.4 19.2 12.8 25.6 38.4 6.4 57.6l-83.2 108.8h185.6V832z m-89.6-640H185.6V384h659.2v-192z m0 275.2H185.6V748.8h659.2v-281.6z"  horiz-adv-x="1024" />

    
    <glyph glyph-name="sutpc-jiaotongxuqiu" unicode="&#58950;" d="M483.378882 215.453416c6.360248-6.360248 19.080745-12.720497 25.440994-12.720497 6.360248 0 19.080745 6.360248 25.440994 12.720497l184.447205 184.447205c50.881988 57.242236 82.68323 127.204969 82.683229 203.52795 0 159.006211-127.204969 292.571429-292.571428 292.571429-159.006211 0-292.571429-133.565217-292.571429-292.571429 0-76.322981 31.801242-146.285714 82.68323-203.52795l184.447205-184.447205zM508.819876 819.677019c120.84472 0 216.248447-95.403727 216.248447-216.248448 0-57.242236-19.080745-114.484472-63.602484-152.645962L508.819876 291.776398 356.173913 450.782609c-38.161491 44.521739-63.602484 95.403727-63.602484 152.645962 0 120.84472 95.403727 216.248447 216.248447 216.248448z m407.0559-725.068323H108.124224c-19.080745 0-38.161491 19.080745-38.161491 38.16149s12.720497 38.161491 38.161491 38.161491h108.124223c19.080745 0 38.161491 19.080745 38.161491 38.161491s-19.080745 38.161491-38.161491 38.16149H108.124224c-57.242236-6.360248-108.124224-57.242236-108.124224-114.484472s44.521739-101.763975 101.763975-108.124223h807.751553c19.080745 0 38.161491-19.080745 38.161491-38.161491s-12.720497-38.161491-38.161491-38.161491H216.248447c-19.080745 0-38.161491-19.080745-38.16149-38.16149s19.080745-38.161491 38.16149-38.161491h693.267081c57.242236 0 108.124224 50.881988 108.124224 108.124224 0 63.602484-44.521739 114.484472-101.763976 114.484472zM508.819876 482.583851c-25.440994 0-50.881988-19.080745-50.881988-44.521739 0-25.440994 19.080745-44.521739 50.881988-44.521739 25.440994 0 50.881988 19.080745 50.881987 44.521739-6.360248 25.440994-25.440994 44.521739-50.881987 44.521739z m0 209.888199c25.440994 0 44.521739-12.720497 44.521739-38.161491 0-44.521739-82.68323-63.602484-69.962733-139.925466h57.242236c-6.360248 63.602484 76.322981 76.322981 76.322981 139.925466 0 57.242236-44.521739 89.043478-101.763975 89.043478-44.521739 0-76.322981-19.080745-101.763975-50.881987l38.161491-31.801243c12.720497 19.080745 31.801242 31.801242 57.242236 31.801243z"  horiz-adv-x="1024" />

    
    <glyph glyph-name="sutpc-changguigongjiao" unicode="&#58951;" d="M627.2 838.4V883.2H396.8v-44.8h-320v-832h89.6v-115.2h236.8v128h243.2v-128h236.8v128h83.2V838.4H627.2zM320-44.8H224v57.6h89.6v-57.6H320z m480 0h-89.6v57.6h89.6v-57.6z m76.8 121.6H147.2V384h729.6v-307.2z m0 377.6h-198.4l96 96c12.8 12.8 12.8 38.4 0 51.2-12.8 12.8-38.4 12.8-51.2 0L576 454.4H384l96 96c12.8 12.8 12.8 38.4 0 51.2-12.8 19.2-32 19.2-51.2 6.4L288 467.2H147.2V761.6h729.6v-307.2zM256 172.8c32 0 51.2 19.2 51.2 51.2s-19.2 51.2-51.2 51.2-51.2-19.2-51.2-51.2 19.2-51.2 51.2-51.2z m512 0c32 0 51.2 19.2 51.2 51.2s-19.2 51.2-51.2 51.2-51.2-19.2-51.2-51.2 32-51.2 51.2-51.2z m-358.4 12.8h211.2c19.2 0 38.4 12.8 38.4 38.4 0 19.2-12.8 38.4-38.4 38.4H409.6c-19.2 0-38.4-12.8-38.4-38.4 0-25.6 19.2-38.4 38.4-38.4z m0 0"  horiz-adv-x="1024" />

    
    <glyph glyph-name="sutpc-wodexiangmu" unicode="&#58952;" d="M512 172.8c83.2 0 160-64 160-153.6h76.8c0 121.6-102.4 224-236.8 224s-236.8-102.4-236.8-224h76.8c0 89.6 64 153.6 160 153.6zM512 294.4c57.6 0 115.2 25.6 140.8 76.8 25.6 44.8 25.6 102.4 0 153.6-38.4 44.8-83.2 76.8-140.8 76.8-83.2 0-160-64-160-153.6 0-83.2 64-153.6 160-153.6z m0 230.4c44.8 0 76.8-38.4 76.8-76.8S550.4 371.2 512 371.2c-44.8 0-76.8 38.4-76.8 76.8S467.2 524.8 512 524.8zM480 716.8V864H19.2v-960h979.2V716.8H480z m-384 70.4h300.8v-70.4H96V787.2z m832-806.4h-832V640h825.6v-659.2z"  horiz-adv-x="1024" />

    
    <glyph glyph-name="sutpc-daolujiaotong" unicode="&#58953;" d="M249.6-115.2V128H38.4v83.2H256V441.6H147.2V537.6H384l134.4 134.4h179.2V883.2h89.6v-211.2h192V576h-185.6v-256h6.4c64-19.2 108.8-89.6 102.4-160-6.4-70.4-64-128-134.4-134.4h-12.8c-70.4 0-128 44.8-147.2 102.4v6.4H345.6v-243.2H249.6z m505.6 345.6c-12.8 0-19.2-6.4-32-12.8s-25.6-12.8-25.6-32c-6.4-19.2-6.4-32 0-51.2 12.8-19.2 32-25.6 51.2-25.6 25.6 0 44.8 19.2 51.2 25.6 12.8 19.2 12.8 44.8 0 64 0 19.2-25.6 32-44.8 32z m-409.6-12.8h262.4v6.4c19.2 44.8 51.2 83.2 89.6 89.6h6.4V576H563.2L422.4 441.6H345.6v-224z"  horiz-adv-x="1024" />

    
    <glyph glyph-name="sutpc-zongtizhibiao" unicode="&#58954;" d="M1088 51.2V883.2h-1088v-838.4h390.4v-76.8H153.6v-76.8H928v76.8h-230.4v76.8l390.4 6.4z m-467.2 70.4v-153.6H467.2v153.6H76.8V806.4h934.4v-684.8H620.8z m76.8 460.8H800L620.8 377.6 390.4 531.2l-153.6-192V665.6H153.6v-467.2h76.8l153.6 211.2L620.8 256l230.4 256v-83.2H928V665.6h-230.4v-83.2z m0 0"  horiz-adv-x="1088" />

    
    <glyph glyph-name="huidaodingduan" unicode="&#58955;" d="M520.1375004 820.01014764l-106.12658701-106.61266298-388.86077827-390.48103231 105.96456207-106.61266297 389.02280321 390.64305723 389.0228032-390.64305723 105.96456207 106.61266297-388.86077827 390.48103231zM445.11977565 272.68860222a75.34177579 75.01772475 90 1 1 150.03544949 0 75.34177579 75.01772475 90 1 1-150.03544949 0ZM445.11977565 21.549349190000044a75.34177579 75.01772475 90 1 1 150.03544949 0 75.34177579 75.01772475 90 1 1-150.03544949 0Z"  horiz-adv-x="1024" />

    
    <glyph glyph-name="fanhui1" unicode="&#58958;" d="M246.87856197 388.76324346l460.97990038-480.53260643 102.40315543 106.77765917-358.57674493 373.75494726 358.57674493 373.75494725L707.85846235 869.29584986 298.11327987 442.18521321z"  horiz-adv-x="1024" />

    
    <glyph glyph-name="sutpc-quedingwancheng" unicode="&#58959;" d="M1190.787879 747.054545L489.50303 45.769697l-397.187878 397.187879-86.884849-86.884849L489.50303-128 1277.672727 660.169697z"  horiz-adv-x="1312" />

    
    <glyph glyph-name="sutpc-guanbi" unicode="&#58960;" d="M1024 793.6L921.6 896 512 486.4 102.4 896 0 793.6 409.6 384 0-25.6 102.4-128 512 281.6l409.6-409.6 102.4 102.4L614.4 384z"  horiz-adv-x="1024" />

    
    <glyph glyph-name="sutpc-bianji" unicode="&#58961;" d="M0-128v283.105882L692.705882 896 963.764706 606.870588 271.058824-128H0z m222.870588 126.494118L662.588235 462.305882 560.188235 576.752941 120.470588 106.917647v-114.447059h102.4z m524.047059 554.164706l54.211765 54.211764-108.42353 114.447059-54.211764-54.211765 108.423529-114.447058z"  horiz-adv-x="1024" />

    
    <glyph glyph-name="xiangqingcopy" unicode="&#58925;" d="M941.696 896H82.304C36.8 896 0 859.2 0 813.696v-859.392C0-91.2 36.8-128 82.304-128h859.392c45.504 0 82.304 36.8 82.304 82.304V813.696C1024 859.2 987.2 896 941.696 896z m0-941.696H82.304V813.696h859.392v-859.392zM408 116.864h352.64a40.96 40.96 0 0 1 40.768 41.28 40.96 40.96 0 0 1-40.704 41.344H408a40.96 40.96 0 0 1-40.704-41.344 40.96 40.96 0 0 1 40.704-41.28z m0 440.512h352.64a40.96 40.96 0 0 1 40.768 41.344 40.96 40.96 0 0 1-40.704 41.28H408a40.96 40.96 0 0 1-40.704-41.28 40.96 40.96 0 0 1 40.704-41.344z m0-220.224h352.64a40.96 40.96 0 0 1 40.768 41.28 40.96 40.96 0 0 1-40.704 41.28H408a40.96 40.96 0 0 1-40.704-41.28 40.96 40.96 0 0 1 40.704-41.28zM222.592 166.976a38.976 38.976 0 1 1 77.952 0 38.976 38.976 0 0 1-77.952 0zM222.592 601.024a38.976 38.976 0 1 1 77.952 0 38.976 38.976 0 0 1-77.952 0zM222.592 389.568a38.976 38.976 0 1 1 77.952 0 38.976 38.976 0 0 1-77.952 0z"  horiz-adv-x="1024" />

    
    <glyph glyph-name="zhishu2" unicode="&#58932;" d="M81.6 154.3h102.7c9.7 0 17.6-7.9 17.6-17.6V-35c0-9.7-7.9-17.6-17.6-17.6H81.6c-9.7 0-17.6 7.9-17.6 17.6V136.7c0 9.7 7.9 17.6 17.6 17.6z m252.7 183.8H437c9.7 0 17.6-7.9 17.6-17.6V-35c0-9.7-7.9-17.6-17.6-17.6H334.3c-9.7 0-17.6 7.9-17.6 17.6V320.5c0 9.7 7.9 17.6 17.6 17.6zM587 223.2h102.7c9.7 0 17.6-7.9 17.6-17.6V-35c0-9.7-7.9-17.6-17.6-17.6H587c-9.7 0-17.6 7.9-17.6 17.6V205.6c0 9.7 7.9 17.6 17.6 17.6z m252.7 252.7h102.7c9.7 0 17.6-7.9 17.6-17.6V-35c0-9.7-7.9-17.6-17.6-17.6H839.7c-9.7 0-17.6 7.9-17.6 17.6V458.3c0.1 9.7 7.9 17.6 17.6 17.6z m-79.5 314.6l45.3-45.3c7-7 6.8-18.5-0.5-25.3L626.6 555.2c-6.4-5.9-16.2-6.2-23-0.7L374.5 741.9c-6.8 5.5-16.6 5.2-23-0.7L69.6 481.1c-3.6-3.3-5.6-8-5.6-12.9v-90.1c0-15.3 18.2-23.3 29.5-12.9l258 238.1c6.4 5.9 16.2 6.2 23 0.7l229.1-187.4c6.8-5.5 16.6-5.2 23 0.7l251.2 231.9c6.9 6.4 17.7 6.2 24.3-0.5l27.9-27.9c11.1-11.1 30-3.2 30 12.4V803c0 9.7-7.9 17.6-17.6 17.6H772.6c-15.6-0.1-23.4-19-12.4-30.1z m-29.9 30"  horiz-adv-x="1024" />

    
    <glyph glyph-name="xiangqing1" unicode="&#58941;" d="M117.167 461.673c-42.978 0-77.673-34.694-77.673-77.673s34.694-77.673 77.673-77.673S194.84 341.021 194.84 384s-34.694 77.673-77.673 77.673z m0 310.689c-42.978 0-77.673-34.694-77.673-77.673s34.694-77.673 77.673-77.673 77.673 34.694 77.673 77.673-34.694 77.673-77.673 77.673z m0-630.182c-38.318 0-68.869-31.069-68.869-68.869s31.069-68.869 68.869-68.869 68.869 31.069 68.869 68.869-30.55 68.869-68.869 68.869z m155.347-120.651h724.941V125.092H272.514v-103.563z m0 310.69h724.941V435.782H272.514v-103.563z m0 414.252v-103.563h724.941V746.471H272.514z"  horiz-adv-x="1024" />

    
    <glyph glyph-name="licheng1" unicode="&#58942;" d="M273.808696 179.20000000000005c0 20.034783-13.356522 33.391304-33.391305 33.391304H33.391304c-20.034783 0-33.391304-13.356522-33.391304-33.391304s13.356522-33.391304 33.391304-33.391304h204.8c20.034783 0 35.617391 13.356522 35.617392 33.391304zM919.373913 214.81739100000004h-171.408696c-20.034783 0-33.391304-13.356522-33.391304-33.391304s13.356522-33.391304 33.391304-33.391304h171.408696c20.034783 0 33.391304-13.356522 33.391304-33.391305s-13.356522-33.391304-33.391304-33.391304H307.2c-57.878261 0-102.4-44.521739-102.4-102.4s44.521739-102.4 102.4-102.4h409.6c20.034783 0 33.391304 13.356522 33.391304 33.391304s-13.356522 33.391304-33.391304 33.391305H307.2c-20.034783 0-33.391304 13.356522-33.391304 33.391304s13.356522 33.391304 33.391304 33.391304h614.4c57.878261 0 102.4 44.521739 102.4 102.4s-44.521739 102.4-104.626087 102.4zM493.968696 145.80869600000005s322.782609 180.313043 322.782608 436.313043c2.226087 173.634783-144.695652 313.878261-322.782608 313.878261S171.186087 755.756522 171.186087 582.1217389999999c0-262.678261 322.782609-436.313043 322.782609-436.313043z m0 549.843478c64.556522 0 120.208696-55.652174 120.208695-120.208696s-55.652174-120.208696-120.208695-120.208695-120.208696 51.2-120.208696 120.208695c2.226087 64.556522 55.652174 120.208696 120.208696 120.208696z"  horiz-adv-x="1024" />

    
    <glyph glyph-name="shijian2" unicode="&#58943;" d="M624.64 716.8a66.56 66.56 0 1 0 133.12 0v-35.84H819.2A92.16 92.16 0 0 0 911.36 588.8v-512a92.16 92.16 0 0 0-92.16-92.16H204.8A92.16 92.16 0 0 0 112.64 76.8V588.8A92.16 92.16 0 0 0 204.8 680.96h61.44v35.84a66.56 66.56 0 0 0 133.12 0v-35.84h225.28v35.84z m66.56 25.6a25.6 25.6 0 0 1-25.6-25.6V640H358.4V716.8a25.6 25.6 0 0 1-51.2 0V640H204.8a51.2 51.2 0 0 1-51.2-51.2v-512a51.2 51.2 0 0 1 51.2-51.2h614.4a51.2 51.2 0 0 1 51.2 51.2V588.8a51.2 51.2 0 0 1-51.2 51.2h-102.4V716.8a25.6 25.6 0 0 1-25.6 25.6zM332.8 783.36a66.56 66.56 0 0 0 66.56-66.56v-153.6a66.56 66.56 0 0 0-133.12 0v153.6a66.56 66.56 0 0 0 66.56 66.56z m0-40.96a25.6 25.6 0 0 1-25.6-25.6v-153.6a25.6 25.6 0 0 1 51.2 0v153.6a25.6 25.6 0 0 1-25.6 25.6zM691.2 783.36a66.56 66.56 0 0 0 66.56-66.56v-153.6a66.56 66.56 0 1 0-133.12 0v153.6a66.56 66.56 0 0 0 66.56 66.56z m0-40.96a25.6 25.6 0 0 1-25.6-25.6v-153.6a25.6 25.6 0 1 1 51.2 0v153.6a25.6 25.6 0 0 1-25.6 25.6zM307.2 337.92h409.6a20.48 20.48 0 1 1 0 40.96H307.2a20.48 20.48 0 1 1 0-40.96zM307.2 184.32h409.6a20.48 20.48 0 1 1 0 40.96H307.2a20.48 20.48 0 1 1 0-40.96z"  horiz-adv-x="1024" />

    
    <glyph glyph-name="bili" unicode="&#59038;" d="M480-49.06666700000005H469.333333C253.866667-42.66666699999996 76.8 134.39999999999998 70.4 347.733333 64 569.6 232.533333 755.2 454.4 768c14.933333 0 27.733333-4.266667 38.4-14.933333 12.8-10.666667 19.2-23.466667 19.2-38.4v-322.133334H836.266667c14.933333 0 29.866667-6.4 38.4-17.066666 10.666667-10.666667 14.933333-25.6 14.933333-40.533334-14.933333-217.6-194.133333-384-409.6-384zM448 704c-181.333333-17.066667-317.866667-170.666667-313.6-354.133333 4.266667-179.2 155.733333-330.666667 334.933333-334.933334 183.466667-4.266667 337.066667 132.266667 354.133334 313.6H507.733333c-32 0-59.733333 25.6-59.733333 59.733334V704z m407.466667-366.933333zM908.8 452.266667h-277.333333c-25.6 0-49.066667 21.333333-49.066667 49.066666V772.266667c0 12.8 4.266667 23.466667 14.933333 32 8.533333 8.533333 21.333333 12.8 34.133334 12.8 164.266667-12.8 309.333333-155.733333 322.133333-315.733334 0-12.8-4.266667-23.466667-10.666667-34.133333-8.533333-8.533333-21.333333-14.933333-34.133333-14.933333z m-19.2 42.666666z m-241.066667 21.333334h238.933334c-19.2 115.2-123.733333 215.466667-238.933334 234.666666v-234.666666z"  horiz-adv-x="1024" />

    
    <glyph glyph-name="querenyuanzhengqueduigoutijiaochenggongwancheng" unicode="&#59047;" d="M512-116.6336c276.48 0 500.6336 224.1536 500.6336 500.6336S788.48 884.6336 512 884.6336 11.3664 660.48 11.3664 384 235.52-116.6336 512-116.6336z m263.7824 690.2272a46.9504 46.9504 0 1 0 66.4576-66.304l-374.9888-375.5008a46.9504 46.9504 0 0 0-63.7952-2.4576l-219.0336 187.7504a46.9504 46.9504 0 0 0 61.1328 71.2704l185.9584-159.4368 344.2688 344.6784z"  horiz-adv-x="1024" />

    
    <glyph glyph-name="cuowu" unicode="&#59004;" d="M0 384a512 512 0 1 1 1024 0A512 512 0 1 1 0 384zM579.828 384l185.88-184.759c18.822-18.627 19.359-49.396 1.268-68.657a46.275 46.275 0 0 0-66.706-1.072L512 316.562l-188.221-187.05a46.275 46.275 0 0 0-66.804 1.072 49.59 49.59 0 0 0 1.317 68.657L444.172 384l-185.88 184.759a49.59 49.59 0 0 0-1.268 68.657 46.275 46.275 0 0 0 66.706 1.072L512 451.438l188.221 187.05a46.275 46.275 0 0 0 66.804-1.072c18.042-19.261 17.505-50.03-1.317-68.657L579.828 384z"  horiz-adv-x="1024" />

    
    <glyph glyph-name="liebiao" unicode="&#58999;" d="M368.64 609.792h534.016c17.408 0 31.232 18.432 31.232 41.472s-13.824 41.472-31.232 41.472H368.64c-17.408 0-31.232-18.432-31.232-41.472s13.824-41.472 31.232-41.472zM162.816 712.704c-32.768 0-62.464-29.696-62.464-62.464 0-32.768 29.696-60.928 62.464-60.928 33.28 0.512 60.416 27.648 60.928 60.928 0 32.768-28.16 62.464-60.928 62.464z m739.84-288.256H368.64c-17.408 0-31.232-18.432-31.232-41.472s13.824-41.472 31.232-41.472h534.016c17.408 0 31.232 18.432 31.232 40.96 0 23.552-13.824 41.984-31.232 41.984zM162.816 443.392c-32.256 0-60.928-28.672-60.928-60.928 0-32.256 28.672-58.88 60.928-58.88 32.256 0 59.392 27.136 59.392 58.88-0.512 31.744-27.136 60.928-59.392 60.928z m739.84-286.72H368.64c-17.408-1.024-30.72-19.968-30.208-43.008 0.512-21.504 13.824-38.912 30.208-39.424h534.016c17.408 1.536 30.208 21.504 29.184 44.032-1.024 20.48-13.312 36.864-29.184 38.4z m-739.84 18.944c-32.256 0-60.928-28.672-60.928-60.928 0-32.256 28.672-59.392 60.928-59.392 32.256 0.512 58.88 26.624 59.392 59.392-0.512 32.256-27.136 60.928-59.392 60.928z"  horiz-adv-x="1024" />

    
    <glyph glyph-name="shezhi" unicode="&#58916;" d="M881 384c0 52.4 32.9 96.8 79 114.5-11 43.2-28 83.9-50.2 121.3C864.6 599.7 810 607.9 773 645c-37 37-45.2 91.7-25.1 136.8C710.4 804 669.7 821 626.5 832c-17.8-46.1-62.2-79-114.5-79-52.4 0-96.8 32.9-114.5 79-43.2-11-83.9-28-121.3-50.2 20.1-45.2 11.9-99.8-25.1-136.8-37-37-91.7-45.2-136.8-25.2C92 582.4 75 541.7 64 498.5c46.1-17.8 79-62.2 79-114.5 0-52.4-32.9-96.8-79-114.5 11-43.2 28-83.9 50.2-121.3C159.4 168.29999999999995 214 160.10000000000002 251 123c37-37 45.2-91.7 25.1-136.8C313.6-36 354.3-53 397.5-64c17.8 46.1 62.2 79 114.5 79 52.4 0 96.8-32.9 114.5-79 43.2 11 83.9 28 121.3 50.2-20.1 45.2-11.9 99.8 25.1 136.8 37 37 91.7 45.2 136.8 25.2C932 185.60000000000002 949 226.29999999999995 960 269.5c-46.1 17.7-79 62.1-79 114.5zM512 261c-67.9 0-123 55.1-123 123s55.1 123 123 123 123-55.1 123-123-55.1-123-123-123z"  horiz-adv-x="1024" />

    
    <glyph glyph-name="sutpc-shipindianwei" unicode="&#59062;" d="M0 691.2v-273.066667c13.653333-27.306667 40.96-54.613333 81.92-75.093333 6.826667-225.28 197.973333-409.6 430.08-409.6s423.253333 184.32 430.08 409.6c34.133333 20.48 68.266667 40.96 81.92 68.266667V691.2C860.16 882.346667 163.84 875.52 0 691.2z m675.84-600.746667h-13.653333c-20.48-40.96-81.92-68.266667-150.186667-68.266666-68.266667 0-129.706667 27.306667-150.186667 68.266666h-6.826666V315.733333c13.653333 75.093333 81.92 136.533333 157.013333 136.533334s143.36-61.44 157.013333-136.533334v-225.28z m266.24 566.613334v-143.36c-157.013333 102.4-709.973333 102.4-860.16 0V657.066667c191.146667 122.88 716.8 109.226667 860.16 0zM512 281.6c40.96 0 81.92-40.96 81.92-95.573333 0-54.613333-34.133333-95.573333-81.92-95.573334-40.96 0-81.92 40.96-81.92 95.573334 0 54.613333 40.96 95.573333 81.92 95.573333z"  horiz-adv-x="1024" />

    
    <glyph glyph-name="sutpc-keliuyichang" unicode="&#59064;" d="M1023.13511 213.909927c0 88.67171-54.567206 163.701618-129.597114 204.627022l-13.641802 6.8209-13.641801-6.8209c-20.462702-13.641801-88.67171-20.462702-122.776213-20.462702l34.104503-54.567206c27.283603 0 75.029908 6.820901 102.313511 20.462702 54.567206-27.283603 88.67171-88.67171 88.67171-143.238915 0-6.820901-20.462702-13.641801-68.209007-27.283603-40.925404 81.850809-115.955312 150.059816-197.806122 190.98522-34.104504-27.283603-75.029908-40.925404-115.955312-47.746305v-61.388107H436.537647v61.388107c-40.925404 6.820901-81.850809 20.462702-115.955313 47.746305-88.67171-40.925404-156.880717-109.134412-197.806121-190.98522-47.746305 6.820901-68.209007 20.462702-68.209007 27.283603 0 61.388107 34.104504 115.955312 88.671709 143.238915 34.104504-13.641801 75.029908-20.462702 102.313511-20.462702l34.104504 54.567206c-34.104504-6.820901-102.313511 6.820901-122.776213 20.462702l-6.820901 6.8209-20.462702-6.8209C54.567206 384.432445 0 302.581636 0 213.909927c0-34.104504 34.104504-61.388107 102.313511-75.029908-13.641801-40.925404-27.283603-88.67171-27.283603-136.418015 0-177.343419 873.075294-170.522518 873.075294 0 0 47.746305-6.820901 95.49261-27.283603 136.418015 68.209007 13.641801 102.313511 40.925404 102.313511 75.029908z m-436.537647-156.880717H436.537647v150.059816h150.059816v-150.059816zM129.597114 466.283254c13.641801-13.641801 34.104504-27.283603 54.567206-34.104504 20.462702-6.820901 68.209007-13.641801 102.313511-13.641801l-40.925405 54.567206c-13.641801 0-27.283603 0-40.925404 6.8209-13.641801 6.820901-27.283603 13.641801-34.104504 27.283603-13.641801 6.820901-20.462702 20.462702-27.283603 34.104504 0 13.641801-6.820901 27.283603-6.8209 40.925404 0 13.641801 0 27.283603 6.8209 40.925405 6.820901 13.641801 13.641801 27.283603 20.462703 34.104503l40.925404 20.462703c6.820901 0 13.641801 6.820901 27.283603 6.8209 0-20.462702-6.820901-40.925404-6.820901-61.388106 0-34.104504 6.820901-68.209007 20.462702-102.313511 13.641801-34.104504 34.104504-61.388107 61.388107-88.67171s54.567206-47.746305 88.671709-61.388106c13.641801 0 27.283603 0 40.925405-6.820901V725.477482h150.059816v-354.686838c6.820901 0 20.462702 6.820901 27.283603 6.8209 34.104504 13.641801 68.209007 34.104504 88.671709 61.388107 27.283603 20.462702 47.746305 47.746305 68.209008 81.850809 13.641801 34.104504 20.462702 68.209007 20.462702 102.313511 0 20.462702 0 40.925404-6.820901 61.388106 13.641801 0 27.283603-6.820901 34.104504-6.8209 13.641801-6.820901 27.283603-13.641801 34.104503-20.462703 13.641801-6.820901 20.462702-20.462702 20.462703-34.104503 6.820901-13.641801 13.641801-27.283603 13.641801-40.925405 0-13.641801 0-27.283603-6.820901-40.925404-6.820901-13.641801-13.641801-27.283603-20.462702-34.104504-13.641801-13.641801-27.283603-20.462702-40.925404-27.283603-13.641801-6.820901-27.283603-6.820901-40.925405-6.8209l-40.925404-54.567206c34.104504-6.820901 81.850809 0 102.313511 13.641801 20.462702 6.820901 40.925404 20.462702 54.567206 34.104504 13.641801 13.641801 27.283603 34.104504 34.104504 54.567206 6.820901 20.462702 13.641801 40.925404 13.641801 61.388106 0 20.462702-6.820901 40.925404-13.641801 61.388107-6.820901 20.462702-20.462702 34.104504-34.104504 54.567206-13.641801 13.641801-34.104504 27.283603-54.567206 34.104503-20.462702 6.820901-54.567206 13.641801-75.029908 13.641802-13.641801 27.283603-34.104504 54.567206-54.567206 75.029908C682.090073 841.432794 647.98557 861.895496 613.881066 875.537298 579.776562 889.179099 545.672059 896 504.746654 896c-34.104504 0-68.209007-6.820901-102.313511-20.462702-34.104504-13.641801-68.209007-34.104504-88.671709-61.388107-27.283603-20.462702-47.746305-47.746305-61.388107-75.029908-20.462702 0-54.567206-6.820901-68.209007-13.641801-20.462702-6.820901-40.925404-13.641801-54.567206-34.104504-13.641801-13.641801-27.283603-27.283603-34.104504-47.746305-6.820901-20.462702-13.641801-40.925404-13.641801-61.388107 0-20.462702 6.820901-40.925404 13.641801-61.388106 6.820901-20.462702 20.462702-40.925404 34.104504-54.567206z"  horiz-adv-x="1024" />

    
    <glyph glyph-name="sutpc-jiaotongshigu" unicode="&#59065;" d="M1020.598007 198.591362l-54.431894 68.039867-210.923588-251.747508zM979.774086 69.315615l-197.315614-61.235881 183.707641-34.019933zM911.734219 395.906977c-20.41196 54.431894-47.627907 108.863787-68.039867 163.295681-6.803987 6.803987-6.803987 20.41196 0 27.215947 20.41196 40.82392 6.803987 88.451827-20.41196 115.667774L666.790698 851.774086c-6.803987 6.803987-27.215947 6.803987-34.019934 0l-40.82392-40.82392-68.039867 74.843854c-13.607973 13.607973-34.019934 13.607973-47.627907 0l-34.019934-34.019934c-13.607973-13.607973-13.607973-34.019934 0-47.627907l68.039867-68.039867-347.003322-353.807309-68.039867 68.039867c-13.607973 13.607973-34.019934 13.607973-47.627907 0L6.803987 416.318937c-6.803987-13.607973-6.803987-34.019934 0-47.627907l68.039867-68.039867-34.019934-40.82392c-6.803987-6.803987-6.803987-27.215947 0-34.019934l61.235881-61.23588L190.511628 76.119601c34.019934-34.019934 74.843854-40.82392 122.471761-27.215947H340.199336c54.431894-20.41196 108.863787-47.627907 163.295681-68.039867 40.82392-20.41196 88.451827-6.803987 115.667774 27.215947l272.159468 272.159469c34.019934 20.41196 40.82392 68.039867 20.41196 115.667774zM625.966777 640.850498c27.215947 27.215947 68.039867 27.215947 88.451828 0 27.215947-27.215947 20.41196-68.039867 0-88.451827-27.215947-27.215947-61.23588-27.215947-88.451828 0s-27.215947 68.039867 0 88.451827zM340.199336 184.983389c-27.215947-27.215947-61.23588-27.215947-88.451828 0-27.215947 20.41196-27.215947 61.23588 0 88.451827s61.23588 27.215947 88.451828 0 27.215947-68.039867 0-88.451827z m503.495016 142.883721l-272.159468-272.159469c-6.803987-6.803987-27.215947-13.607973-34.019934-6.803987-54.431894 20.41196-102.059801 40.82392-156.491694 68.039868l408.239202 408.239202c27.215947-54.431894 47.627907-102.059801 68.039868-156.491694-6.803987-20.41196-6.803987-34.019934-13.607974-40.82392zM918.538206-93.980066c0-20.41196-13.607973-34.019934-27.215947-34.019934H170.099668c-13.607973 0-27.215947 13.607973-27.215947 34.019934s13.607973 34.019934 27.215947 34.019933h721.222591c13.607973 0 27.215947-13.607973 27.215947-34.019933z"  horiz-adv-x="1024" />

    
    <glyph glyph-name="sutpc-sheshiposun" unicode="&#59066;" d="M354.621879 589.115682c-13.639303-20.458955-20.458955-47.737561-13.639303-75.016167 0-20.458955-6.819652-34.098258-20.458955-47.737561-13.639303-6.819652-34.098258-6.819652-47.73756 0-20.458955 6.819652-27.278606 20.458955-27.278606 40.917909-6.819652 61.376864 13.639303 122.753727 54.557212 170.491288l54.557212-88.655469zM272.786061 718.689061c-61.376864-54.557212-88.65547-136.39303-81.835818-218.228849 0-27.278606-20.458955-47.737561-40.91791-47.737561-27.278606 0-47.737561 13.639303-54.557212 40.917909C81.835818 623.213939 136.39303 752.787318 245.507455 827.803485c20.458955 13.639303 40.917909 27.278606 61.376863 34.098257l-54.557212-109.114424 20.458955-34.098257zM497.834561 609.574636l-34.098258 95.475121c75.016167 54.557212 170.491288 54.557212 245.507455 0 61.376864-47.737561 88.65547-122.753727 81.835818-197.769894 0-27.278606-27.278606-47.737561-54.557212-40.917909-27.278606 6.819652-47.737561 27.278606-40.917909 54.557212 6.819652 27.278606-6.819652 61.376864-20.458955 81.835819-27.278606 20.458955-54.557212 34.098258-81.835818 40.917909-34.098258 6.819652-75.016167-6.819652-95.475121-34.098258zM443.277349 752.787318l-13.639303 40.917909L504.654212 889.180348c102.294773 20.458955 211.409197 0 293.245016-61.376863 102.294773-81.835818 156.851985-211.409197 136.39303-334.162925 0-27.278606-27.278606-47.737561-54.557212-40.917909-27.278606 6.819652-47.737561 27.278606-40.917909 54.557212 20.458955 143.212682-81.835818 279.605712-225.0485 293.245016-61.376864 0-122.753727-13.639303-170.491288-47.737561zM1009.308425 241.313454c-6.819652 13.639303-27.278606 20.458955-40.917909 20.458955l-368.261182 47.73756 20.458954 163.671637c0 27.278606-13.639303 47.737561-40.917909 54.557212-27.278606 0-47.737561-13.639303-54.557212-40.917909l-20.458955-163.671637h-13.639303l-6.819651-88.655469 54.557212-300.064667-115.934076 286.425364-6.819651 81.835818-361.441531-27.278606c-13.639303 0-27.278606-6.819652-40.917909-20.458955-6.819652-13.639303-13.639303-27.278606-13.639303-47.73756l27.278606-272.786061c0-34.098258 34.098258-61.376864 68.196515-54.557212l450.097 40.917909 381.900486-47.737561c34.098258-6.819652 61.376864 20.458955 68.196515 54.557212l34.098257 272.786061c-6.819652 13.639303-6.819652 27.278606-20.458954 40.917909z m-845.636789-204.589545c-20.458955 0-34.098258 6.819652-47.73756 20.458954-13.639303 13.639303-13.639303 34.098258-6.819652 47.737561 6.819652 13.639303 20.458955 27.278606 40.917909 27.278606 27.278606 0 47.737561-20.458955 47.737561-47.737561 6.819652-20.458955-6.819652-40.917909-34.098258-47.73756z m143.212682 13.639303c-20.458955 0-34.098258 6.819652-47.73756 20.458954-13.639303 13.639303-13.639303 34.098258-6.819652 47.737561 13.639303 20.458955 27.278606 27.278606 47.737561 27.278606 27.278606 0 47.737561-20.458955 47.73756-47.737561 6.819652-20.458955-13.639303-40.917909-40.917909-47.73756z m586.490031-27.278606l-238.687803 27.278606 13.639303 95.475121 238.687803-27.278606-13.639303-95.475121z"  horiz-adv-x="1030" />

    
    <glyph glyph-name="yincangqitadiquditu1" unicode="&#59294;" d="M430.919158-128H295.595423l-67.661868 117.179771 65.393872 37.799926 45.737911-79.379845h91.85382v-75.599852zM99.754005 211.594537l65.469472 37.799926 96.200812-166.622075-65.469472-37.799926zM67.661868 267.009228L0 384.189l67.661868 116.801772 65.393872-37.799927-45.737911-79.001845 45.737911-79.379845-65.393872-37.799927zM99.602805 556.821262L195.803618 723.481137l65.507272-37.799926-96.200812-166.622075zM293.327427 741.020303l-65.393872 37.799926L295.595423 896h135.323735v-75.599852H339.065338L293.327427 741.020303zM494.801034 896h192.401624v-75.599852h-192.401624zM888.676264 741.020303L842.938354 820.400148h-91.475822V896h135.323736l67.661868-117.179771-65.771872-37.799926zM921.070801 685.378811l65.469472 37.799927 96.238612-166.584275-65.469472-37.799926zM1114.719823 267.009228l-65.771872 37.799927 46.11591 79.379845-46.11591 79.001845 65.771872 37.799927 67.283868-116.801772-67.283868-117.179772zM920.730602 82.923588l96.163012 166.622075 65.469472-37.799927-96.163012-166.622074zM886.786268-128h-135.323736v75.599852h91.475822l45.73791 79.379845 65.771872-37.799926-67.661868-117.179771zM494.801034-52.400148h192.401624v-75.599852h-192.401624zM591.190845 384.189m-162.917681 0a162.917682 162.917682 0 1 1 325.835363 0 162.917682 162.917682 0 1 1-325.835363 0Z"  horiz-adv-x="1182" />

    
    <glyph glyph-name="schedule-taxi-copy" unicode="&#58914;" d="M865.698 477.575l-71.313 182.134c-13.418 34.694-42.493 64.318-97.369 64.318h-100.728c0 0-32.71 76.276-49.508 76.276h-72.646c-16.8 0-49.508-76.276-49.508-76.276h-101.911c-54.811 0-83.887-29.623-97.283-64.318l-71.336-182.134c-28.293-3.593-78.349-36.47-78.349-98.674v-231.724h80.23v-57.703c0-91.152 108.588-90.096 108.588 0v57.703h490.621v-57.703c0-90.096 108.587-91.152 108.587 0v57.703h80.231l-0 231.723c0.020 62.206-50.057 95.083-78.309 98.675zM250.388 287.476c-33.977 0-61.551 28.080-61.551 62.753 0 34.694 27.574 62.776 61.551 62.776s61.531-28.082 61.531-62.776c0-34.674-27.555-62.753-61.531-62.753zM227.927 481.843l53.691 140.933c6.719 20.115 16.777 34.694 40.316 34.926h375.947c23.434-0.232 33.512-14.811 40.231-34.926l53.712-140.933h-563.898zM769.388 287.476c-33.979 0-61.531 28.080-61.531 62.753 0 34.694 27.554 62.776 61.531 62.776 34.019 0 61.572-28.082 61.572-62.776 0-34.674-27.554-62.753-61.572-62.753z"  horiz-adv-x="1024" />

    
    <glyph glyph-name="jietu1" unicode="&#58927;" d="M99.484 6.196a43.251 43.251 0 0 0-12.704 30.685V687.73H43.39a43.39 43.39 0 1 0 0 86.78h43.39V852.61a43.39 43.39 0 0 0 86.78 0v-78.102h737.626a43.39 43.39 0 0 0 43.39-43.39v-650.847h43.39a43.39 43.39 0 1 0 0-86.78h-43.39v-78.101a43.39 43.39 0 1 0-86.78 0v78.102H130.17c-11.975 0-22.823 4.86-30.685 12.704z m74.075 74.075h694.238V687.73H173.559V80.27z m130.17 416.543a60.746 60.746 0 1 0 0 121.491 60.746 60.746 0 0 0 0-121.491z m-35.077-350.59a34.712 34.712 0 0 0-27.943 55.33L422.825 448.13a34.712 34.712 0 0 0 53.752 2.551l15.672-17.46a34.712 34.712 0 0 1 52.588 1.042l44.414 53.664a34.712 34.712 0 0 0 56.754-4.703l165.437-284.846a34.712 34.712 0 0 0-30.026-52.154H268.67z"  horiz-adv-x="1041" />

    
    <glyph glyph-name="zhankai" unicode="&#59014;" d="M128 170.666667h426.666667v85.333333h-426.666667v-85.333333z m661.333333-170.666667l149.333334 256h-298.666667l149.333333-256zM128 768v-85.333333h768v85.333333H128z m0-256h426.666667v85.333333h-426.666667v-85.333333z m0-170.666667h426.666667v85.333334h-426.666667v-85.333334z"  horiz-adv-x="1024" />

    
    <glyph glyph-name="tuceng" unicode="&#59291;" d="M81.92 435.2l429.44-214.848L940.8 435.2a57.088 57.088 0 0 0 83.2-54.208 56.704 56.704 0 0 0-32-47.552l-455.04-227.584a56.256 56.256 0 0 0-50.56 0L31.36 333.376A56.832 56.832 0 0 0 81.92 435.2z m0-227.52l429.44-214.912 429.44 214.848a57.088 57.088 0 0 0 83.2-54.208 56.64 56.64 0 0 0-32-47.552l-455.04-227.584a56.256 56.256 0 0 0-50.56 0L31.36 105.856a56.832 56.832 0 0 0 50.56 101.76z m101.76 404.224l327.68-163.968 328.32 163.968-328.32 163.904zM536.96 890.304l455.04-227.52a57.024 57.024 0 0 0 0-101.824L536.96 333.44a56.256 56.256 0 0 0-50.56 0L31.36 560.96a56.96 56.96 0 0 0 0 101.76L486.4 890.304a56.256 56.256 0 0 0 50.56 0z m0 0"  horiz-adv-x="1024" />

    
    <glyph glyph-name="dianxuan" unicode="&#59292;" d="M101.668571 896h101.668572v-102.4H101.668571v-102.4H0V896h101.668571z m0-1024H0v204.8h101.668571v-102.4h101.668572V-128H101.668571zM915.017143 896h101.668571v-204.8h-101.668571V793.6h-101.668572V896h101.668572zM305.005714 896h152.137143v-102.4H305.005714V896z m253.805715 0h152.868571v-102.4H558.811429V896zM305.005714-25.6h152.137143V-128H305.005714v102.4zM101.668571 588.8v-153.6H0V588.8h101.668571z m0-256v-153.6H0V332.8h101.668571zM1024 588.8v-153.6h-101.668571V588.8H1024z m-294.765714-446.171429l-137.508572-155.648L558.811429 537.6l457.874285-303.908571-202.605714-41.691429 155.062857-270.628571-84.845714-49.371429z m0 0"  horiz-adv-x="1024" />

    
    <glyph glyph-name="jiantou2" unicode="&#59290;" d="M1365.333333-128l523.377778 512L1365.333333 896h443.733334L2332.444444 384l-523.377777-512H1365.333333z m-682.666666 0l523.377777 512L682.666667 896h443.733333L1649.777778 384l-523.377778-512H682.666667zM0-128l523.377778 512L0 896h443.733333L967.111111 384l-523.377778-512H0z"  horiz-adv-x="2332" />

    
    <glyph glyph-name="sutpc-shiyijieshizhushi_huaban" unicode="&#59008;" d="M545.98163001 481.09036999h-97.09037113l-97.09036999-97.09036999h97.09036999v-291.27111111h97.09037113l97.09036999 97.09036999h-97.09036999v291.27111111z m-48.54518556 388.36148224c-266.9985189 0-485.45185223-218.45333333-485.45185224-485.45185223s218.45333333-485.45185223 485.45185224-485.45185223 485.45185223 218.45333333 485.45185222 485.45185223c0 271.85303666-213.59881443 485.45185223-485.45185222 485.45185223z m0-873.81333333c-213.59881443 0-388.3614811 174.76266667-388.36148111 388.3614811s174.76266667 388.3614811 388.36148111 388.3614811 388.3614811-174.76266667 388.3614811-388.3614811-169.90814777-388.3614811-388.3614811-388.3614811z m48.54518556 631.08740665h-97.09037113v-97.09037h97.09037113V626.72592555z"  horiz-adv-x="1024" />

    
    <glyph glyph-name="shebei_weibo-xin" unicode="&#59288;" d="M564.328657 532.777555c-43.094188-24.625251-98.501002-30.781563-151.855711-20.521042l-26.677355 6.156313 26.677355-110.813628 10.260521-2.052104c16.416834-2.052104 32.833667-4.104208 49.250501-4.104208 53.354709 0 100.553106 12.312625 143.647295 38.98998 61.563126 36.937876 106.709419 92.344689 131.334669 160.064128l4.104208 10.260521-55.406813 53.354709c-10.260521 10.260521-8.208417 26.677355 4.104208 34.885772 10.260521 6.156313 14.364729 20.521042 8.208417 30.781563L683.350701 772.873747c-6.156313 10.260521-20.521042 14.364729-30.781563 8.208417l-82.084168-47.198396c-10.260521-6.156313-24.625251-2.052104-30.781563 8.208416L463.775551 875.478958V889.843687h-8.208417L451.462926 896l-12.312625-6.156313H22.573146C10.260521 889.843687 0 879.583166 0 867.270541v-972.697395c0-12.312625 10.260521-22.573146 22.573146-22.573146h357.066133c12.312625 0 22.573146 10.260521 22.573146 22.573146v112.865732c0 12.312625-10.260521 22.573146-22.573146 22.573146H178.533066c-12.312625 0-22.573146 10.260521-22.573146 22.573146V711.310621c0 12.312625 10.260521 22.573146 22.573146 22.573147h174.428858c8.208417 0 14.364729-4.104208 18.468938-10.260522l32.833667-57.458917c6.156313-10.260521 2.052104-24.625251-8.208417-30.781563l-82.084168-47.198397c-10.260521-6.156313-14.364729-20.521042-8.208417-30.781563l24.625251-43.094189c6.156313-10.260521 20.521042-14.364729 30.781563-8.208417l303.711423 174.428858-4.104209-16.416834c-12.312625-57.458918-47.198397-102.60521-96.448898-131.334669zM463.775551 266.004008c12.312625 0 22.573146-2.052104 32.833667-2.052104 69.771543 0 135.438878 18.468938 194.9499 53.354709 69.771543 41.042084 125.178357 104.657315 160.064128 182.637275l4.104209 10.260521-75.927856 73.875751-8.208417-22.573146c-28.729459-67.719439-73.875752-121.074148-131.334669-153.907816-61.563126-32.833667-125.178357-47.198397-190.845691-38.98998l-24.625251 4.104209 26.677355-104.657315 12.312625-2.052104zM943.967936 177.76352699999995H591.006012c-77.97996 0-141.59519-67.719439-141.59519-151.855711v-151.855712h492.50501c77.97996 0 141.59519 67.719439 141.59519 151.855712 2.052104 84.136273-61.563126 151.855711-139.543086 151.855711zM668.985972-29.49899800000003c0-12.312625-6.156313-20.521042-16.416834-20.521042-2.052104 0-4.104208 0-6.156312 2.052104-2.052104 0-4.104208 2.052104-6.156313 4.104209-2.052104 2.052104-4.104208 4.104208-4.104208 6.156312-2.052104 2.052104-4.104208 4.104208-4.104209 6.156313l-55.406813 90.292585v-90.292585c0-6.156313-2.052104-10.260521-4.104209-12.312625-2.052104-2.052104-6.156313-4.104208-10.260521-4.104209s-8.208417 2.052104-10.260521 4.104209c-2.052104 2.052104-4.104208 6.156313-4.104208 12.312625v119.022044c0 4.104208 0 8.208417 2.052104 10.260521 2.052104 2.052104 4.104208 6.156313 6.156312 8.208417 2.052104 2.052104 6.156313 2.052104 10.260522 2.052104 2.052104 0 4.104208 0 6.156312-2.052104 2.052104 0 4.104208-2.052104 4.104209-4.104209 2.052104-2.052104 2.052104-4.104208 4.104208-6.156312 2.052104-2.052104 2.052104-4.104208 4.104208-8.208417l55.406814-92.344689v92.344689c0 6.156313 2.052104 10.260521 4.104208 12.312625 2.052104 2.052104 6.156313 4.104208 10.260521 4.104209s8.208417-2.052104 10.260522-4.104209c2.052104-2.052104 4.104208-6.156313 4.104208-12.312625v-116.96994z m139.543086-16.416834c-2.052104-2.052104-6.156313-4.104208-10.260521-4.104208H718.236473c-6.156313 0-10.260521 2.052104-14.36473 4.104208s-4.104208 8.208417-4.104208 14.36473v116.96994c0 4.104208 0 8.208417 2.052104 10.260521l6.156313 6.156312c2.052104 2.052104 6.156313 2.052104 10.260521 2.052105h77.97996c4.104208 0 8.208417-2.052104 10.260521-4.104209 2.052104-2.052104 4.104208-4.104208 4.104208-8.208417s-2.052104-6.156313-4.104208-8.208417c-2.052104-2.052104-6.156313-4.104208-10.260521-4.104208h-65.667335v-36.937876h61.563126c4.104208 0 8.208417 0 10.260521-2.052104 2.052104-2.052104 4.104208-4.104208 4.104209-8.208417 0-2.052104-2.052104-6.156313-4.104209-8.208417-2.052104-2.052104-6.156313-4.104208-10.260521-4.104208h-61.563126v-43.094188h67.719439c4.104208 0 8.208417-2.052104 10.260521-4.104209 2.052104-2.052104 4.104208-4.104208 4.104209-8.208417-2.052104-4.104208-2.052104-8.208417-4.104209-10.260521z m192.897796 125.178357l-24.625251-102.60521c-2.052104-6.156313-2.052104-12.312625-4.104208-14.36473-2.052104-4.104208-2.052104-6.156313-6.156313-8.208417-2.052104-2.052104-6.156313-4.104208-10.260521-4.104208s-8.208417 2.052104-10.260521 4.104208c-2.052104 2.052104-4.104208 4.104208-6.156313 8.208417-2.052104 2.052104-2.052104 8.208417-4.104208 14.36473l-22.573146 92.344689-24.625251-92.344689c-2.052104-6.156313-4.104208-12.312625-4.104208-14.36473-2.052104-4.104208-2.052104-8.208417-6.156313-10.260521-2.052104-2.052104-6.156313-4.104208-10.260521-4.104208s-6.156313 0-8.208417 2.052104l-6.156312 6.156313c-2.052104 2.052104-2.052104 6.156313-4.104209 8.208416 0 4.104208-2.052104 6.156313-2.052104 10.260521l-24.62525 102.605211c-2.052104 8.208417-2.052104 12.312625-2.052105 14.364729 0 4.104208 2.052104 6.156313 4.104209 10.260521 2.052104 2.052104 6.156313 4.104208 10.260521 4.104209 6.156313 0 8.208417-2.052104 10.260521-6.156313 2.052104-4.104208 4.104208-8.208417 4.104208-14.364729l18.468938-90.292585 20.521042 86.188376c2.052104 6.156313 2.052104 10.260521 4.104209 14.36473s4.104208 6.156313 6.156312 8.208417c2.052104 2.052104 6.156313 4.104208 12.312626 4.104208 4.104208 0 8.208417-2.052104 12.312625-4.104208 2.052104-2.052104 4.104208-4.104208 6.156312-8.208417 2.052104-4.104208 2.052104-10.260521 4.104209-14.36473l20.521042-86.188376 18.468938 90.292585c0 4.104208 2.052104 6.156313 2.052104 10.260521 0 2.052104 2.052104 4.104208 4.104208 6.156312 2.052104 2.052104 4.104208 2.052104 8.208417 2.052105s6.156313-2.052104 10.260521-4.104209c2.052104-2.052104 4.104208-6.156313 4.104209-10.260521 2.052104 0 2.052104-4.104208 0-10.260521z"  horiz-adv-x="1083" />

    
    <glyph glyph-name="shebei_weibo" unicode="&#59285;" d="M915.238477 481.47495l-10.260521-18.468938c-41.042084-80.032064-96.448898-139.543086-166.220441-178.533066-67.719439-38.98998-141.59519-57.458918-227.783567-53.35471h-22.573146l26.677354-104.657314H543.807615c86.188377 0 170.324649 22.573146 246.252505 67.719439 82.084168 45.146293 147.751503 114.917836 194.9499 203.158316l6.156313 10.260521-75.927856 73.875752zM595.11022 532.777555c-43.094188-24.625251-98.501002-30.781563-151.855711-20.521042l-26.677355 6.156313 26.677355-110.813628 10.260521-2.052104c16.416834-2.052104 32.833667-4.104208 49.250501-4.104208 53.354709 0 100.553106 12.312625 143.647295 38.98998 61.563126 36.937876 106.709419 92.344689 131.334669 160.064128l4.104208 10.260521-55.406813 53.354709c-10.260521 10.260521-8.208417 26.677355 4.104208 34.885772 10.260521 6.156313 14.364729 20.521042 8.208417 30.781563L714.132265 772.873747c-6.156313 10.260521-20.521042 14.364729-30.781564 8.208417l-82.084168-47.198396c-10.260521-6.156313-24.625251-2.052104-30.781563 8.208416L494.557114 875.478958V889.843687h-8.208417L482.244489 896l-12.312625-6.156313H53.354709C41.042084 889.843687 30.781563 879.583166 30.781563 867.270541v-972.697395c0-12.312625 10.260521-22.573146 22.573146-22.573146h357.066133c12.312625 0 22.573146 10.260521 22.573146 22.573146v112.865732c0 12.312625-10.260521 22.573146-22.573146 22.573146H209.314629c-12.312625 0-22.573146 10.260521-22.573146 22.573146V711.310621c0 12.312625 10.260521 22.573146 22.573146 22.573147h174.428858c8.208417 0 14.364729-4.104208 18.468938-10.260522l32.833667-57.458917c6.156313-10.260521 2.052104-24.625251-8.208417-30.781563l-82.084168-47.198397c-10.260521-6.156313-14.364729-20.521042-8.208417-30.781563l24.625251-43.094189c6.156313-10.260521 20.521042-14.364729 30.781563-8.208417l303.711423 174.428858-4.104209-16.416834c-12.312625-57.458918-47.198397-102.60521-96.448898-131.334669zM529.442886 263.951904c69.771543 0 135.438878 18.468938 194.9499 53.354709 69.771543 41.042084 125.178357 104.657315 160.064128 182.637275l4.104208 10.260521-77.97996 73.875751-8.208417-22.573146c-28.729459-67.719439-73.875752-121.074148-131.334669-153.907816-61.563126-32.833667-125.178357-47.198397-190.845691-38.98998l-24.625251 4.104209 26.677355-104.657315h12.312625c12.312625-2.052104 22.573146-4.104208 34.885772-4.104208z"  horiz-adv-x="1024" />

    
    <glyph glyph-name="shebei_leishi" unicode="&#59286;" d="M865.987976 896H166.220441C73.875752 896 0 822.124248 0 729.7795590000001V341.931864c0-92.344689 73.875752-166.220441 166.220441-166.220441h4.104208c22.573146-172.376754 168.272545-303.711423 344.753507-303.711423S839.310621 5.386773999999946 861.883768 175.71142299999997h4.104208c92.344689 0 166.220441 73.875752 166.220441 166.220441V729.7795590000001c0 92.344689-73.875752 166.220441-166.220441 166.220441z m-348.857715-962.436874c-53.354709 0-96.448898 43.094188-96.448898 96.448898s43.094188 96.448898 96.448898 96.448898 96.448898-43.094188 96.448897-96.448898-43.094188-96.448898-96.448897-96.448898zM943.967936 341.931864c0-43.094188-34.885772-77.97996-77.97996-77.97996H166.220441c-43.094188 0-77.97996 34.885772-77.97996 77.97996V729.7795590000001C88.240481 772.873747 123.126253 807.759519 166.220441 807.759519h699.767535C909.082164 807.759519 943.967936 772.873747 943.967936 729.7795590000001V341.931864zM839.310621 750.300601H192.897796c-24.625251 0-43.094188-20.521042-43.094189-43.094188v-342.701403c0-24.625251 20.521042-43.094188 43.094189-43.094188h646.412825c24.625251 0 43.094188 20.521042 43.094189 43.094188V707.206413c0 24.625251-18.468938 43.094188-43.094189 43.094188z"  horiz-adv-x="1032" />

    
    <glyph glyph-name="shebei_dici" unicode="&#59287;" d="M510.95723 651.991853c50.052953 0 87.592668 22.940937 87.592668 50.052954s-37.539715 50.052953-87.592668 50.052953-87.592668-22.940937-87.592668-50.052953 39.625255-50.052953 87.592668-50.052954zM510.95723 631.136456c-62.566191 0-108.448065 31.283096-108.448065 70.908351s45.881874 70.90835 108.448065 70.90835 108.448065-31.283096 108.448065-70.90835-45.881874-70.90835-108.448065-70.908351z m0 100.105907c-41.710794 0-66.737271-16.684318-66.737271-29.197556s25.026477-29.197556 66.737271-29.197556 66.737271 16.684318 66.737271 29.197556-25.026477 29.197556-66.737271 29.197556zM1003.144603 518.517312c0 25.026477-8.342159 58.395112-50.052953 93.849287 8.342159 16.684318 14.598778 35.454175 14.598778 54.224032 0 118.875764-196.040733 208.553971-456.733198 208.553972S56.309572 785.466395 56.309572 664.505092c0-18.769857 6.256619-37.539715 14.598778-54.224033C29.197556 576.912424 20.855397 541.458248 20.855397 518.517312c0-29.197556 12.513238-56.309572 35.454175-79.25051v-387.910387c0-18.769857 16.684318-35.454175 35.454175-35.454175 6.256619 0 12.513238 2.08554 18.769858 6.256619 33.368635-20.855397 75.07943-39.625255 120.961303-54.224032v-4.17108c0-16.684318 12.513238-31.283096 29.197556-33.368635 16.684318-4.171079 33.368635 6.256619 39.625255 20.855397 58.395112-12.513238 118.875764-18.769857 177.270876-20.855397 0-18.769857 16.684318-35.454175 35.454175-35.454175 18.769857 0 35.454175 16.684318 35.454175 35.454175 60.480652 2.08554 118.875764 8.342159 177.270876 20.855397 6.256619-14.598778 22.940937-22.940937 39.625254-20.855397 16.684318 4.171079 27.112016 16.684318 27.112017 33.368635v4.17108c41.710794 12.513238 79.250509 29.197556 110.533605 47.967413 6.256619-10.427699 16.684318-16.684318 29.197556-16.684317 18.769857 0 35.454175 16.684318 35.454175 35.454175V439.266802c20.855397 22.940937 35.454175 50.052953 35.454175 79.25051z m-492.187373-133.474542c-196.040733 0-337.857434 45.881874-394.167006 91.763747-2.08554 2.08554-4.171079 4.171079-6.256619 4.17108-12.513238 12.513238-20.855397 25.026477-20.855397 35.454175 0 14.598778 12.513238 29.197556 25.026476 39.625254 77.164969-62.566191 221.06721-104.276986 396.252546-104.276985 173.099796 0 319.087576 41.710794 396.252546 104.276985 12.513238-10.427699 25.026477-25.026477 25.026477-39.625254 0-10.427699-6.256619-22.940937-20.855398-35.454175-2.08554-2.08554-4.171079-4.171079-6.256619-4.17108-54.224033-45.881874-196.040733-91.763747-394.167006-91.763747z m0 419.193483C732.02444 804.236253 896.782077 731.2423630000001 896.782077 664.505092s-164.757637-139.731161-385.824847-139.731161S125.132383 597.767821 125.132383 664.505092s166.843177 139.731161 385.824847 139.731161zM125.132383 97.23828900000001v291.97556c31.283096-14.598778 66.737271-29.197556 104.276986-39.625254V40.928717000000006c-41.710794 16.684318-77.164969 35.454175-104.276986 56.309572z m175.185336-75.07943V332.904277c56.309572-10.427699 114.704684-16.684318 175.185336-18.769857V-0.7820769999999584c-60.480652 2.08554-120.961303 10.427699-175.185336 22.940936z m246.093686 291.975561c58.395112 2.08554 116.790224 8.342159 175.185336 18.769857v-312.830957c-58.395112-12.513238-116.790224-20.855397-175.185336-22.940937V314.13442zM792.505092 349.58859500000005c39.625255 10.427699 75.07943 22.940937 104.276985 39.625254v-291.97556c-25.026477-20.855397-60.480652-39.625255-104.276985-56.309572V349.58859500000005zM510.95723-128c-25.026477 0-43.796334 14.598778-52.138493 37.539715-50.052953 2.08554-100.105906 8.342159-150.158859 18.769857-12.513238-14.598778-33.368635-22.940937-52.138493-18.769857-22.940937 4.171079-39.625255 22.940937-43.796334 43.796334-39.625255 12.513238-75.07943 29.197556-102.191446 45.881874-6.256619-2.08554-10.427699-2.08554-16.684318-4.17108-31.283096 0-56.309572 25.026477-56.309572 56.309572V430.924644C12.513238 458.03666 0 487.234216 0 518.517312c0 25.026477 8.342159 60.480652 45.881874 98.020366-6.256619 16.684318-10.427699 33.368635-10.427699 47.967414C35.454175 797.979633 235.665988 896 510.95723 896s477.588595-98.020367 477.588595-231.494908c0-16.684318-4.171079-33.368635-10.427699-47.967414 37.539715-37.539715 45.881874-72.99389 45.881874-98.020366 0-31.283096-12.513238-60.480652-35.454175-87.592668v-398.338086c0-31.283096-25.026477-56.309572-56.309572-56.309572-12.513238 0-25.026477 4.171079-33.368636 10.427698-25.026477-14.598778-54.224033-27.112016-87.592668-37.539715-4.171079-20.855397-20.855397-37.539715-43.796334-43.796334-18.769857-4.171079-39.625255 4.171079-52.138493 18.769858-50.052953-10.427699-100.105906-16.684318-152.244399-18.769858-8.342159-18.769857-27.112016-33.368635-52.138493-33.368635z m-225.238289 102.191446l16.684318-4.171079c58.395112-12.513238 116.790224-18.769857 175.185336-20.855398h20.855397v-20.855397c0-8.342159 6.256619-14.598778 14.598778-14.598778s14.598778 6.256619 14.598778 14.598778v20.855397h20.855397c58.395112 2.08554 116.790224 8.342159 175.185336 20.855398l16.684318 4.171079 6.256619-16.684318c2.08554-6.256619 8.342159-10.427699 16.684318-8.342159 6.256619 2.08554 10.427699 6.256619 10.427698 14.598778v18.769858l14.598778 4.171079c41.710794 12.513238 77.164969 29.197556 106.362526 45.881874l18.769857 10.427699 10.427699-18.769858c2.08554-4.171079 6.256619-6.256619 12.513238-6.256619 8.342159 0 14.598778 6.256619 14.598778 14.598778V447.608961l6.256619 6.256619c18.769857 20.855397 29.197556 41.710794 29.197556 64.651732 0 18.769857-8.342159 47.967413-41.710794 77.164969l-12.513238 10.427699 8.342158 14.598778c8.342159 14.598778 12.513238 29.197556 12.513239 43.796334C946.835031 770.867617 754.965377 854.289206 510.95723 854.289206S77.164969 770.867617 77.164969 664.505092c0-14.598778 4.171079-29.197556 12.513239-43.796334l8.342159-14.598778-14.598778-10.427699c-35.454175-29.197556-41.710794-58.395112-41.710795-77.164969 0-22.940937 10.427699-43.796334 29.197556-64.651732l6.256619-6.256619v-396.252546c0-8.342159 6.256619-14.598778 14.598778-14.598778 2.08554 0 4.171079 0 6.25662 2.08554l12.513238 8.342159 10.427698-6.256619c31.283096-18.769857 68.822811-37.539715 116.790224-52.138493l14.598778-4.171079v-18.769858c0-6.256619 4.171079-12.513238 10.427699-14.598778 6.256619-2.08554 12.513238 2.08554 16.684318 8.342159l6.256619 14.598778z m239.837067 4.171079V334.989817h20.855397c58.395112 2.08554 114.704684 8.342159 173.099797 18.769857l25.026476 4.17108v-354.541752l-16.684318-4.171079c-58.395112-12.513238-118.875764-20.855397-179.356415-22.940937l-22.940937 2.085539z m41.710794 317.002037V20.073319999999967c43.796334 2.08554 89.678208 8.342159 133.474542 16.684317v271.120163c-43.796334-6.256619-87.592668-10.427699-133.474542-12.513238zM498.443992-21.637474999999995h-20.855397c-62.566191 2.08554-123.046843 10.427699-179.356416 22.940937l-16.684317 4.17108V357.930754l25.026476-4.17108c54.224033-10.427699 112.619145-16.684318 173.099796-18.769857h20.855398V-21.637474999999995h-2.08554z m-177.270876 60.480652c41.710794-8.342159 87.592668-14.598778 133.474542-16.684318V295.364562c-45.881874 2.08554-89.678208 6.256619-133.474542 14.598778v-271.120163z m-68.822811-27.112016l-27.112016 10.427698c-45.881874 16.684318-85.507128 37.539715-112.619144 60.480652l-8.342159 6.256619v333.686355l31.283095-14.598778c29.197556-14.598778 62.566191-27.112016 102.191446-37.539715l14.598778-4.17108v-354.541751zM145.98778 107.66598799999997c16.684318-12.513238 37.539715-25.026477 62.566191-35.454175V332.904277c-20.855397 8.342159-41.710794 14.598778-62.566191 22.940937v-248.179226z m625.661915-95.934827v354.541751l14.598778 4.17108c39.625255 10.427699 72.99389 22.940937 102.191446 37.539715l31.283095 16.684317v-335.771894l-8.342159-6.256619c-27.112016-22.940937-64.651731-43.796334-112.619144-60.480652l-27.112016-10.427698zM813.360489 332.904277v-262.778004c25.026477 10.427699 45.881874 22.940937 62.566191 35.454175v250.264766c-18.769857-8.342159-39.625255-14.598778-62.566191-22.940937z m-302.403259 31.283096C298.232179 364.187373 158.501018 416.325866 104.276986 460.1222l-2.08554 2.085539-2.08554 2.08554-2.085539 2.08554c-18.769857 16.684318-27.112016 33.368635-27.112017 50.052953 0 18.769857 10.427699 37.539715 31.283096 56.309572l12.513238 10.427699 12.513239-10.427699c75.07943-62.566191 218.98167-98.020367 383.739307-98.020366s306.574338 37.539715 383.739308 98.020366l14.598778 10.427699 12.513238-12.513239c20.855397-18.769857 31.283096-37.539715 31.283096-56.309572 0-16.684318-8.342159-33.368635-27.112017-50.052953l-2.085539-2.08554-2.08554-2.085539-2.08554-2.08554c-54.224033-41.710794-193.955193-93.849287-408.765784-93.849287zM131.389002 491.405295c54.224033-43.796334 191.869654-87.592668 379.568228-87.592668 189.784114 0 327.429735 43.796334 379.568228 87.592668l6.256619 6.256619c12.513238 12.513238 12.513238 18.769857 12.513239 18.769858 0 2.08554-2.08554 6.256619-6.256619 12.513238-85.507128-60.480652-231.494908-95.934827-394.167007-95.934827S200.211813 468.464358 114.704684 528.94501c-4.171079-6.256619-6.256619-10.427699-6.256619-12.513238 0-4.171079 4.171079-10.427699 12.513238-18.769858 6.256619-2.08554 8.342159-4.171079 10.427699-6.256619z m379.568228 12.513239C291.97556 503.918534 104.276986 576.912424 104.276986 664.505092s187.698574 160.586558 406.680244 160.586558C732.02444 825.09165 917.637475 752.09776 917.637475 664.505092s-185.613035-160.586558-406.680245-160.586558z m0 279.462321C285.718941 783.380855 145.98778 706.215886 145.98778 664.505092s137.645621-118.875764 364.96945-118.875764S875.92668 622.7942969999999 875.92668 664.505092s-137.645621 118.875764-364.96945 118.875763z"  horiz-adv-x="1024" />

    
    <glyph glyph-name="leishi" unicode="&#59282;" d="M850.415954 710.017094c-13.128205 0-24.068376 15.316239-24.068376 28.444444 0 13.128205 10.940171 24.068376 24.068376 24.068377l2.188035 2.188034h6.564102c37.196581 0 65.641026 30.632479 65.641026 65.641025s-30.632479 65.641026-65.641026 65.641026H80.22792c-37.196581 0-65.641026-30.632479-65.641025-65.641026s30.632479-65.641026 65.641025-65.641025h553.57265l80.957265-2.188034c13.128205 0 24.068376-10.940171 24.068376-24.068377 0-13.128205-10.940171-28.444444-24.068376-28.444444H106.48433C60.535613 710.017094 23.339031 672.820513 23.339031 626.871795V248.34187999999995c0-45.948718 37.196581-83.145299 83.145299-83.145299l323.82906 4.376069v-148.786325h-102.837607c-24.068376 0-43.760684-19.692308-43.760683-43.760684v-61.264957c0-24.068376 19.692308-43.760684 43.760683-43.760684H631.612536c24.068376 0 43.760684 19.692308 43.760683 43.760684v61.264957c0 24.068376-19.692308 43.760684-43.760683 43.760684h-100.649573v148.786325l319.452991-4.376069c45.948718 0 83.145299 37.196581 83.1453 83.145299V626.871795c0 45.948718-37.196581 83.145299-83.1453 83.145299z m-50.324786-402.598291c0-10.940171-8.752137-19.692308-19.692308-19.692307H176.501425c-10.940171 0-19.692308 8.752137-19.692308 19.692307V594.051282c0 10.940171 8.752137 19.692308 19.692308 19.692308h603.897435c10.940171 0 19.692308-8.752137 19.692308-19.692308v-286.632479z"  horiz-adv-x="1024" />

    
    <glyph glyph-name="bo-xin" unicode="&#59279;" d="M560.39801 475.701493c-48.39801 28.0199-112.079602 10.189055-140.099503-38.208956-28.0199-48.39801-10.189055-112.079602 38.208956-140.099502V-122.90547300000003h101.890547V297.39303500000005c15.283582 10.189055 28.0199 22.925373 38.208955 38.208955 28.0199 48.39801 10.189055 112.079602-38.208955 140.099503zM114.626866 284.65671599999996C58.587065 503.721393 188.497512 725.333333 407.562189 781.3731339999999 626.626866 837.412935 848.238806 707.502488 904.278607 488.437811c15.283582-58.587065 15.283582-117.174129 5.094527-173.21393h101.890548c5.094527 22.925373 7.641791 45.850746 7.641791 71.323383C1018.905473 666.746269 789.651741 896 509.452736 896S0 666.746269 0 386.547264c0-247.084577 175.761194-450.865672 407.562189-499.263682v104.437811C264.915423 29.93034799999998 152.835821 142.00995 114.626866 284.65671599999996zM407.562189 562.308458c96.79602 56.039801 221.61194 22.925373 277.651741-73.870647 30.567164-56.039801 35.661692-119.721393 15.283582-173.21393h106.985075c35.661692 150.288557-45.850746 308.218905-196.139303 359.164179C453.412935 730.427861 277.651741 646.368159 221.61194 488.437811 165.572139 327.960199 249.631841 154.74626899999998 407.562189 98.70646799999997v112.079602c-30.567164 17.830846-56.039801 43.303483-73.870647 73.870646-56.039801 96.79602-22.925373 221.61194 73.870647 277.651742zM1215.044776 223.52238799999998H776.915423c-96.79602 0-175.761194-78.965174-175.761194-175.761194v-175.761194h611.343283c96.79602 0 175.761194 78.965174 175.761194 175.761194 2.547264 96.79602-76.41791 175.761194-173.21393 175.761194z m-341.333333-241.99005c0-15.283582-7.641791-22.925373-20.37811-22.925373-2.547264 0-5.094527 0-7.641791 2.547264-2.547264 0-5.094527 2.547264-7.641791 5.094527-2.547264 2.547264-5.094527 5.094527-5.094527 7.641791-2.547264 2.547264-5.094527 5.094527-5.094527 7.641791l-68.77612 104.437811v-104.437811c0-7.641791-2.547264-12.736318-5.094527-15.283582-2.547264-2.547264-7.641791-5.094527-12.736319-5.094527s-10.189055 2.547264-12.736318 5.094527c-2.547264 2.547264-5.094527 7.641791-5.094527 15.283582v137.552239c0 5.094527 0 10.189055 2.547263 12.736319 2.547264 2.547264 5.094527 7.641791 7.641791 10.189054 2.547264 2.547264 7.641791 2.547264 12.736319 2.547264 2.547264 0 5.094527 0 7.641791-2.547264 2.547264 0 5.094527-2.547264 5.094527-5.094527 2.547264-2.547264 2.547264-5.094527 5.094527-7.641791 2.547264-2.547264 2.547264-5.094527 5.094528-10.189055l68.776119-106.985075v106.985075c0 7.641791 2.547264 12.736318 5.094528 15.283582 2.547264 2.547264 7.641791 5.094527 12.736318 5.094528s10.189055-2.547264 12.736318-5.094528c2.547264-2.547264 5.094527-7.641791 5.094528-15.283582v-137.552239z m173.21393-17.830845c-2.547264-2.547264-7.641791-5.094527-12.736318-5.094528h-99.343284c-7.641791 0-12.736318 2.547264-17.830846 5.094528s-5.094527 10.189055-5.094527 17.830845v135.004975c0 5.094527 0 10.189055 2.547264 12.736319l7.641791 7.641791c2.547264 2.547264 7.641791 2.547264 12.736318 2.547264h96.79602c5.094527 0 10.189055-2.547264 12.736318-5.094528 2.547264-2.547264 5.094527-5.094527 5.094528-10.189055s-2.547264-7.641791-5.094528-10.189054c-2.547264-2.547264-7.641791-5.094527-12.736318-5.094528h-81.512438v-43.303482h76.417911c5.094527 0 10.189055 0 12.736318-2.547264 2.547264-2.547264 5.094527-5.094527 5.094527-10.189055 0-2.547264-2.547264-7.641791-5.094527-10.189054-2.547264-2.547264-7.641791-5.094527-12.736318-5.094528h-76.417911v-50.945273h84.059702c5.094527 0 10.189055-2.547264 12.736318-5.094528 2.547264-2.547264 5.094527-5.094527 5.094527-10.189054-2.547264 0-2.547264-5.094527-5.094527-7.641791z m239.442786 145.194029l-30.567164-119.721393c-2.547264-7.641791-2.547264-15.283582-5.094527-17.830845-2.547264-5.094527-2.547264-7.641791-7.641791-10.189055-2.547264-2.547264-7.641791-5.094527-12.736319-5.094528s-10.189055 2.547264-12.736318 5.094528c-2.547264 2.547264-5.094527 5.094527-7.641791 10.189055-2.547264 2.547264-2.547264 10.189055-5.094528 17.830845l-28.0199 106.985075-30.567164-106.985075c-2.547264-7.641791-5.094527-15.283582-5.094528-17.830845-2.547264-2.547264-2.547264-7.641791-7.641791-10.189055-2.547264-2.547264-7.641791-5.094527-12.736318-5.094528s-7.641791 0-10.189055 2.547264l-7.641791 7.641791c-2.547264 2.547264-2.547264 7.641791-5.094527 10.189055 0 5.094527-2.547264 7.641791-2.547264 12.736318l-30.567164 119.721393c-2.547264 7.641791-2.547264 12.736318-2.547264 15.283582 0 5.094527 2.547264 7.641791 5.094528 12.736319 2.547264 2.547264 7.641791 5.094527 12.736318 5.094527 7.641791 0 10.189055-2.547264 12.736318-7.641791 2.547264-5.094527 5.094527-10.189055 5.094528-17.830846l22.925373-104.437811 25.472637 99.343284c2.547264 7.641791 2.547264 12.736318 5.094527 17.830846 2.547264 5.094527 5.094527 7.641791 7.641791 10.189055 2.547264 2.547264 7.641791 5.094527 15.283582 5.094527 5.094527 0 10.189055-2.547264 15.283582-5.094527 2.547264-2.547264 5.094527-5.094527 7.641791-10.189055 2.547264-5.094527 2.547264-12.736318 5.094528-17.830846l25.472637-99.343284 22.925373 104.437811c0 5.094527 2.547264 7.641791 2.547263 12.736319 0 2.547264 2.547264 5.094527 5.094528 7.641791 2.547264 2.547264 5.094527 2.547264 10.189054 2.547264s7.641791-2.547264 12.736319-5.094528c2.547264-2.547264 5.094527-7.641791 5.094527-12.736318 2.547264 0 2.547264-5.094527 0-12.736319z"  horiz-adv-x="1390" />

    
    <glyph glyph-name="dici" unicode="&#58957;" d="M925.6 503.2c0 20.9-8.9 53.8-53.2 86.6 14.8 20.9 23.6 41.8 23.6 62.7 0 98.6-171.3 179.2-384 179.2s-384-80.6-384-179.2c0-20.9 8.9-41.8 23.6-62.7-44.3-32.9-53.2-65.7-53.2-86.6 0-23.9 11.8-44.8 29.5-65.7V115c0-98.6 171.3-179.2 384-179.2S896 16.399999999999977 896 115V437.5c17.8 20.9 29.6 41.8 29.6 65.7zM201 519.1h12.1c69.3-36.9 183.8-61.5 313.4-61.5 132.6 0 250.1 24.6 322.4 64 3 0 3-2.5 6-2.5 21.1-12.3 36.2-27.1 36.2-36.9 0-34.5-138.6-98.5-361.6-98.5s-361.6 64-361.6 98.5c-3 9.9 9 22.2 33.1 36.9z m311 209.3c38.6 0 68.9-16.1 68.9-34.5s-30.3-34.5-68.9-34.5c-38.6 0-68.9 16.1-68.9 34.5s30.3 34.5 68.9 34.5zM236.3 39.10000000000002V349.29999999999995h44.8c6.9-3.1 17.2-3.1 24.1-6.2v-304h-68.9z m310.2-34.4h-68.9V314.79999999999995h68.9v-310.1z m241.2 34.4h-68.9v304c6.9 3.1 17.2 3.1 24.1 6.2h44.8v-310.2z"  horiz-adv-x="1024" />

    
    <glyph glyph-name="bo" unicode="&#59432;" d="M426.666667-34.13333299999999c-194.730667 39.552-341.333333 211.712-341.333334 418.133333C85.333333 619.648 276.352 810.666667 512 810.666667s426.666667-191.018667 426.666667-426.666667c0-206.421333-146.602667-378.581333-341.333334-418.133333v87.552a341.333333 341.333333 0 1 1-170.666666 0V-34.13333299999999z m0 176.682666a256 256 0 1 0 170.666666 0v93.610667a170.666667 170.666667 0 1 1-170.666666 0v-93.610667z m128 167.552V-42.66666699999996H469.333333v352.768a85.333333 85.333333 0 1 0 85.333334 0z"  horiz-adv-x="1024" />

    
    <glyph glyph-name="kakou1" unicode="&#58920;" d="M108.8 206.93333299999995V341.33333300000004L0 366.93333299999995v-448l108.8 38.4v153.6H281.6l96 128L256 302.93333299999995l-32-96zM1024 341.33333300000004L243.2 853.333333H153.6L32 661.333333V597.333333l684.8-416h57.6v6.4zM96 526.933333l-64-64 678.4-422.4h64l32 32 32 96s-89.6-64-96-64a664.96 664.96 0 0 1-64 38.4z m0 0"  horiz-adv-x="1024" />

    
    <glyph glyph-name="tongbichiping" unicode="&#59052;" d="M206.336 616.96c0 11.264 9.728 20.992 20.992 20.992l437.248 1.536 0.512 72.704c0 7.168 9.216 11.776 14.848 6.656l123.392-108.032c10.752-9.216 10.24-25.6-0.512-34.816l-120.832-97.792c-7.168-6.144-17.408-1.536-17.408 7.68l-2.048 62.976-435.712-0.512c-10.752 0-20.48 8.704-20.48 20.48v48.128zM359.424 87.552c0-12.8-13.824-23.04-30.208-23.04H229.888c-16.896-0.512-30.208 10.752-30.208 23.04V393.216c0 12.8 13.824 23.04 30.208 23.04h99.328c16.896 0 30.208-10.752 30.208-23.04v-305.664zM583.68 87.552c0-12.8-13.824-23.04-30.208-23.04H453.632c-15.872-0.512-29.696 10.752-29.696 23.552V392.192c0 12.8 13.824 23.04 30.208 23.04h99.328c16.896 0 30.208-10.752 30.208-23.04v-304.64zM812.544 87.552c0-12.8-13.824-23.04-30.208-23.04h-99.328c-16.896-0.512-30.208 10.752-30.208 23.552V397.824c0 12.8 13.824 23.04 30.208 23.04h99.328c16.896 0 30.208-10.752 30.208-23.04v-310.272z"  horiz-adv-x="1024" />

    
    <glyph glyph-name="kakou" unicode="&#58913;" d="M546.658462 68.923077l-254.03077 120.910769c-23.630769 11.027692-47.261538 2.756923-57.895384-20.873846 0-0.393846-0.393846-0.393846-0.393846-0.787692-10.24-23.630769 1.575385-47.655385 25.206153-59.076923l80.738462-36.627693-77.587692-130.363077-211.495385 3.15077c-25.993846 0.787692-42.929231-13.390769-44.504615-35.84v-2.363077c0-20.086154 11.421538-32.689231 38.203077-33.476923l275.692307 0.787692 96.492308 159.901538 96.492308-46.08c24.024615-11.421538 50.018462-4.726154 61.046153 20.086154 10.633846 23.630769-4.726154 48.443077-27.963076 60.652308z m306.018461 51.2L128.787692 413.538462l152.418462 386.756923 814.473846-330.043077-235.126154-339.889231-7.876923-10.24z m345.403077 381.636923a48.836923 48.836923 0 0 1-28.356923 31.901538L278.449231 890.486154C254.030769 900.332308 226.067692 888.516923 216.615385 864.098462c0-0.393846-0.393846-0.787692-0.393847-1.181539L41.353846 407.236923c-9.452308-25.206154 2.363077-53.169231 27.175385-63.409231l778.24-312.32c20.48-7.876923 43.716923-0.787692 56.32 16.935385l287.901538 410.387692c9.452308 12.603077 11.815385 28.356923 7.089231 42.929231zM1026.363077 35.446154l-10.24 7.483077a32.964923 32.964923 0 0 0-7.089231 44.110769l179.593846 262.695385c9.846154 14.178462 28.356923 17.723077 42.535385 7.08923l10.24-7.483077c13.390769-10.24 16.541538-29.538462 7.089231-44.110769l-179.593846-262.695384c-10.24-13.784615-29.144615-16.935385-42.535385-7.089231z"  horiz-adv-x="1260" />

    
    <glyph glyph-name="IOTtubiao_huabanfuben" unicode="&#58912;" d="M515.9 654.1c50.3 0 89.7 22.7 89.7 51.7 0 29-39.4 51.7-89.7 51.7-50.3 0-89.7-22.7-89.7-51.7 0-29 39.4-51.7 89.7-51.7z m0 0M1018 517.6c0 24.6-9.4 59.9-50.5 95.3 9.3 17.4 14.7 35.8 14.7 54.9C982.1 790.5 781.7 883 515.9 883S49.7 790.5 49.7 667.8c0-19.2 5.4-37.5 14.7-55-41.3-35.5-50.6-71.1-50.6-95.2 0-30.1 13.3-56.8 35.9-80.7v-396.7c0-19.8 16.1-35.9 35.9-35.9 6.9 0.2 13.7 2.4 19.3 6.5 33.8-22.1 76.1-40.6 124.1-55.7v-4.6c0.1-17.1 12.2-31.7 28.9-35 16.8-3.3 33.5 5.7 40 21.5 59.9-12.5 120.8-19.7 182-21.4v-0.9c0-19.8 16.1-35.9 35.9-35.9 19.8 0 35.9 16.1 35.9 35.9v0.4C613-83.2 674-76 734-63.5c6.7-15.6 23.5-24.4 40.1-21 16.7 3.4 28.6 18.1 28.7 35.1v3.8c43.2 13.5 81.6 30 113.5 49.3 6.3-10.6 17.6-17.2 30-17.3 19.8 0 35.9 16.1 35.9 35.9V436.9c22.4 23.8 35.8 50.6 35.8 80.7zM515.9 380.9c-201.3 0-346.4 47.5-403.5 94.8-1.8 2-3.8 3.7-6 5.3-13.5 12.6-20.9 25.1-20.9 36.6 0 15.5 12.9 30.1 25.4 40.8 78.9-64.2 227.1-105.8 405-105.8 178 0 326.2 41.6 405 105.8 12.2-10.6 25.3-25.5 25.3-40.9 0-11.4-7.4-23.9-20.9-36.6-2.2-1.5-4.2-3.3-6-5.3-57-47.2-202.1-94.7-403.4-94.7z m0 430.4c225.8 0 394.5-75.7 394.5-143.5 0-67.7-168.7-143.4-394.5-143.4s-394.5 75.7-394.5 143.4S290.1 811.3 515.9 811.3zM121.4 87.6V385.7c31.2-15.9 67.6-29.4 107.6-40.5v-315c-44.5 15.6-81.5 35.1-107.6 57.4z m179.3-77.7V328.7c57.1-10.7 118.2-17 179.3-18.8v-322.5c-63.9 2.1-124.8 9.9-179.3 22.5z m251.1 300c60.2 1.6 120.1 7.9 179.3 18.8v-319.1c-58.9-13.2-119-20.8-179.3-22.6V309.9z m251 35.3c40.1 11 76.5 24.5 107.6 40.5v-298.1c-25.8-22.1-62.8-41.6-107.6-57.3V345.2z m0 0"  horiz-adv-x="1024" />

    
    <glyph glyph-name="icon_huaban" unicode="&#58897;" d="M128 160c-0.055-0-0.121-0.001-0.186-0.001-17.673 0-32 14.327-32 32 0 8.883 3.619 16.921 9.464 22.718l384.002 384.002c5.784 5.751 13.757 9.305 22.56 9.305s16.776-3.555 22.562-9.307l383.998-383.998c4.783-5.559 7.695-12.847 7.695-20.815 0-17.673-14.327-32-32-32-7.968 0-15.256 2.912-20.857 7.73l-361.238 361.565-361.92-362.24c-5.731-5.53-13.538-8.943-22.142-8.96z"  horiz-adv-x="1024" />

    
    <glyph glyph-name="yibiaopan" unicode="&#58898;" d="M1344.242609-128A708.923077 708.923077 0 1 1 73.773686-128h1270.547692zM1189.53984 393.137231c41.590154 13.390769 45.371077 5.513846 8.270769-17.801846l-462.532923-290.500923c-41.668923-26.151385-92.002462-11.657846-112.876308 33.004307-20.637538 44.347077 1.024 92.711385 47.261539 107.598769l519.876923 167.699693zM118.672148 147.692308A40.014769 40.014769 0 0 0 78.893686 187.076923c0 21.740308 16.856615 39.384615 39.778462 39.384615h77.981538c21.976615 0 39.778462-18.274462 39.778462-39.384615 0-21.740308-16.856615-39.384615-39.778462-39.384615h-77.981538z m59.392 300.504615A40.014769 40.014769 0 0 0 163.334302 502.153846a38.990769 38.990769 0 0 0 54.114461 14.178462l67.584-38.99077c18.983385-10.948923 25.206154-35.682462 14.729846-53.956923a38.990769 38.990769 0 0 0-54.114461-14.178461l-67.584 38.990769z m201.64923 230.478769A40.014769 40.014769 0 0 0 393.970609 732.790154a38.990769 38.990769 0 0 0 53.956923-14.729846l39.069539-67.584A40.014769 40.014769 0 0 0 472.73984 596.361846a38.990769 38.990769 0 0 0-53.956923 14.729846l-39.069539 67.584zM669.662917 777.452308C669.662917 799.428923 687.937378 817.230769 709.047532 817.230769c21.740308 0 39.384615-16.856615 39.384616-39.778461v-77.981539A40.014769 40.014769 0 0 0 709.047532 659.692308a38.990769 38.990769 0 0 0-39.384615 39.778461v77.981539z m300.504615-59.392A40.014769 40.014769 0 0 0 1024.124455 732.790154c18.904615-10.870154 25.678769-34.264615 14.178462-54.114462l-38.990769-67.584a40.014769 40.014769 0 0 0-53.956923-14.729846 38.990769 38.990769 0 0 0-14.178462 54.114462l38.990769 67.584z m230.47877-201.649231a40.014769 40.014769 0 0 0 54.114461-14.257231c10.870154-18.904615 5.12-42.535385-14.729846-53.956923l-67.584-39.069538A40.014769 40.014769 0 0 0 1118.332455 423.384615a38.990769 38.990769 0 0 0 14.729847 53.956923l67.584 39.069539zM1299.422917 226.461538c21.976615 0 39.778462-18.274462 39.778461-39.384615 0-21.740308-16.856615-39.384615-39.778461-39.384615h-77.981539A40.014769 40.014769 0 0 0 1181.662917 187.076923c0 21.740308 16.856615 39.384615 39.778461 39.384615h77.981539z"  horiz-adv-x="1417" />

    
    <glyph glyph-name="qingkuangbiao" unicode="&#58902;" d="M319.639 480.164H704.34c17.709 0 32.055 14.326 32.055 32.076 0 17.668-14.346 32.035-32.055 32.035H319.639c-17.686 0-32.054-14.367-32.054-32.035 0-17.75 14.368-32.076 32.054-32.076z m0-192.371H704.34c17.709 0 32.055 14.367 32.055 32.076s-14.346 32.076-32.055 32.076H319.639c-17.686 0-32.054-14.367-32.054-32.076s14.368-32.076 32.054-32.076z m0-192.37H704.34c17.709 0 32.055 14.408 32.055 32.075 0 17.709-14.346 32.076-32.055 32.076H319.639c-17.686 0-32.054-14.367-32.054-32.076 0-17.667 14.368-32.075 32.054-32.075zM832.58 736.644c-17.686 0-32.054-14.407-32.054-32.075 0-17.709 14.368-32.076 32.054-32.076 17.688 0 32.056-14.325 32.056-32.033v-641.182c0-17.626-14.367-32.076-32.056-32.076H191.398c-17.623 0-32.053 14.45-32.053 32.076V640.461c0 17.708 14.43 32.033 32.053 32.033 17.709 0 32.055 14.367 32.055 32.076 0 17.667-14.346 32.075-32.055 32.075-53.02 0-96.164-43.142-96.164-96.184v-641.182c0-53.043 43.145-96.145 96.164-96.145H832.58c53.022 0 96.187 43.102 96.187 96.145V640.461c0 53.042-43.164 96.183-96.187 96.183z m-512.941-64.151H704.34c17.709 0 32.055 14.367 32.055 32.076 0 17.667-14.346 32.075-32.055 32.075h-35.332C654.2 809.778 589.508 864.865 511.99 864.865c-77.496 0-142.211-55.087-157.018-128.221h-35.334c-17.686 0-32.054-14.407-32.054-32.075 0.001-17.708 14.369-32.076 32.055-32.076zM511.99 800.756c41.745 0 76.368-26.939 89.69-64.111H422.299c13.344 37.171 47.947 64.111 89.691 64.111z"  horiz-adv-x="1024" />

    
    <glyph glyph-name="lichengxiao" unicode="&#58937;" d="M494.933333 145.066667S819.2 325.973333 819.2 581.973333C819.2 756.053333 672.426667 896 494.933333 896S170.666667 756.053333 170.666667 581.973333C170.666667 319.146667 494.933333 145.066667 494.933333 145.066667z m0 549.546666c64.853333 0 119.466667-54.613333 119.466667-119.466666s-54.613333-119.466667-119.466667-119.466667S375.466667 506.88 375.466667 575.146667c0 64.853333 54.613333 119.466667 119.466666 119.466666zM273.066667 179.2c0 20.48-13.653333 34.133333-34.133334 34.133333H34.133333c-20.48 0-34.133333-13.653333-34.133333-34.133333s13.653333-34.133333 34.133333-34.133333h204.8c20.48 0 34.133333 13.653333 34.133334 34.133333z m648.533333 34.133333h-170.666667c-20.48 0-34.133333-13.653333-34.133333-34.133333s13.653333-34.133333 34.133333-34.133333h170.666667c20.48 0 34.133333-13.653333 34.133333-34.133334s-13.653333-34.133333-34.133333-34.133333H307.2c-58.026667 0-102.4-44.373333-102.4-102.4s44.373333-102.4 102.4-102.4h409.6c20.48 0 34.133333 13.653333 34.133333 34.133333s-13.653333 34.133333-34.133333 34.133334H307.2c-20.48 0-34.133333 13.653333-34.133333 34.133333s13.653333 34.133333 34.133333 34.133333h614.4c58.026667 0 102.4 44.373333 102.4 102.4s-44.373333 102.4-102.4 102.4z"  horiz-adv-x="1024" />

    
    <glyph glyph-name="shibai" unicode="&#59075;" d="M511.3856 895.6928c284.398933 0.477867 511.863467-226.935467 511.829333-511.726933 0-284.791467-227.515733-512.170667-511.8976-511.658667C227.566933-127.146667 1.706667 98.645333 0.768 382.737067-0.1536 667.306667 226.696533 895.197867 511.3856 895.6928z m445.303467-528.298667c9.0624 232.413867-168.789333 449.928533-426.888534 461.585067-239.189333 10.8032-451.925333-175.428267-462.370133-428.373333-9.591467-232.465067 168.7552-449.928533 426.786133-461.585067 239.035733-10.786133 451.5328 175.291733 462.472534 428.373333zM353.757867 590.506667l374.101333-374.101334-48.264533-48.264533-374.101334 374.101333zM727.8592 542.242133l-374.101333-374.101333-48.2816 48.264533L679.594667 590.506667z"  horiz-adv-x="1024" />

    
    <glyph glyph-name="ft-signal_01" unicode="&#58903;" d="M448.04397 767.384423V895.296484H0.351758v-1023.296484h383.736182v127.91206H128.263819V767.384423zM315.239273 582.231716l360.008494 207.857098 31.978015-55.385922-360.008494-207.857098zM574.99669 674.456311l-110.771845-63.95603-127.91206 221.543689 110.771844 63.95603zM962.890013 409.230654l-54.362626 51.164824c-41.57142-79.945038-99.131847-147.09887-179.076884-191.868091-76.747236-44.769221-159.890076-60.758229-246.230717-57.560427l19.186809-73.549435c92.736244-3.197802 182.274686 19.186809 265.417526 67.153832 86.340641 47.967023 150.296671 118.318656 195.065892 204.659297zM854.164762 514.758104L799.802136 565.922928c-28.780214-70.351633-76.747236-131.109862-143.901068-169.48348-63.95603-35.175817-134.307663-51.164824-207.857098-41.57142l19.186809-73.549435c79.945038-6.395603 156.692274 9.593405 227.043907 51.164825 70.351633 41.57142 124.714259 105.52745 159.890076 182.274686zM745.43951 620.285554l-57.560427 54.362625c-15.989008-63.95603-54.362626-115.120854-108.725251-147.098869-51.164824-28.780214-111.923053-35.175817-169.48348-22.384611l19.186809-76.747236c67.153832-9.593405 131.109862 0 188.670289 35.175817 60.758229 35.175817 105.52745 89.538442 127.91206 156.692274z"  horiz-adv-x="1024" />

    
    <glyph glyph-name="yongdudu" unicode="&#58904;" d="M449.4 315.46666665c-11.6 4-20.5 13.4-24.3 25.1l-21.9 56.5c-6.7 20.6-45.9 44.5-67.5 44.5H186c-21.7 0-60.8-23.9-67.5-44.5L97 341.16666665c-3.8-11.7-12.6-21.2-24.2-25.2-21.9-7.6-33.1-30.4-33.1-57.3v-187c0-19.3 15.7-35 35-35H99c19.3 0 35 15.7 35 35v11c0 22.1 17.9 40 40 40h173.7c22.1 0 40-17.9 40-40v-8.9c0-20.5 16.6-37.2 37.2-37.2h22.2c19.3 0 35 15.7 35 35v49.8 137.2c-0.1 27-10.9 49.5-32.7 56.9z m-238.6 76.1h101.7c26 0 49-16.7 57.1-41.4l7.5-17.5c2.8-6.6-2-13.9-9.2-13.9H155.7c-7.1 0-12 7.2-9.2 13.8l7.1 17c7.8 25 30.9 42 57.2 42z m-42.8-200H99.6c-11 0-20 9-20 20V214.66666665000002c0 12.6 11.6 22.1 23.9 19.6l59.5-12c9.3-1.9 16.1-10.1 16.1-19.6 0-6.1-5-11.1-11.1-11.1z m253.1 0h-68.4c-6.1 0-11.1 5-11.1 11.1 0 9.5 6.7 17.7 16.1 19.6l59.5 12c12.4 2.5 23.9-7 23.9-19.6v-3.1c0-11-9-20-20-20zM983 258.66666665c0 26.9-10.8 50-32.6 57.8-11.6 4.1-20.5 13.7-24.4 25.4l-21.8 55.3c-6.7 20.6-45.9 44.5-67.5 44.5H687c-21.7 0-60.8-23.9-67.5-44.5l-21.5-56c-3.8-11.7-12.6-21.2-24.2-25.2-21.9-7.6-33.1-30.4-33.1-57.3v-187c0-19.3 15.7-35 35-35H600c19.3 0 35 15.7 35 35v11c0 22.1 17.9 40 40 40h173.7c22.1 0 40-17.9 40-40v-8.9c0-20.5 16.6-37.2 37.2-37.2h22.2c19.3 0 35 15.7 35 35v49.8V258.66666665h-0.1zM711.8 391.56666665h101.7c26 0 49-16.7 57.1-41.4l7.5-17.5c2.8-6.6-2-13.9-9.2-13.9H656.7c-7.1 0-12 7.2-9.2 13.8l7.1 17c7.8 25 30.9 42 57.2 42z m-42.8-200h-68.4c-11 0-20 9-20 20V214.66666665000002c0 12.6 11.6 22.1 23.9 19.6l59.5-12c9.3-1.9 16.1-10.1 16.1-19.6 0-6.1-5-11.1-11.1-11.1z m253.1 0h-68.4c-6.1 0-11.1 5-11.1 11.1 0 9.5 6.7 17.7 16.1 19.6l59.5 12c12.4 2.5 23.9-7 23.9-19.6v-3.1c0-11-9-20-20-20zM394.7 534.3666666500001h0.4c-1.9 0.3-3.8 0.5-5.7 0.5M321.9 534.8666666500001c1.4-0.3 2.9-0.5 4.4-0.5M715.6 640.7666666499999c-11.6 4-20.4 13.5-24.2 25.2l-21.5 55.9c-6.7 20.6-45.9 44.5-67.5 44.5H412.7c-21.7 0-60.8-23.9-67.5-44.5l-21.5-55.9c-3.8-11.7-12.6-21.2-24.2-25.2-21.9-7.6-33.1-30.4-33.1-57.3v-28.6c0-11 9-20 20-20h35.5c-8.9 2-15.6 10-15.6 19.5v3.1c0 12.6 11.6 22.1 23.9 19.6l59.5-12c9.3-1.9 16.1-10.1 16.1-19.6 0-6-4.7-10.9-10.7-11.1 12.7-2.1 23.5-11.2 27.6-23.7l3-9.4c2.7-8.3 10.4-13.8 19-13.8h133.2c8.7 0 16.4 5.6 19 13.8l3 9.4c4.1 12.5 14.7 21.5 27.4 23.7h-8c-6 0-11 4.8-11.1 10.9-0.1 9.6 6.6 18 16.1 19.8l59.5 12c12.4 2.5 23.9-7 23.9-19.6v-3.1c0-9.5-6.7-17.5-15.6-19.5h36.5c11 0 20 9 20 20v28.6c0.1 26.9-11.1 49.7-33 57.3z m-81.1 2.7H382.4c-7.1 0-12 7.2-9.2 13.8l7.1 17c7.8 25 31 42 57.3 42h141.7c26 0 49-16.7 57.1-41.4l7.5-17.5c2.6-6.6-2.2-13.9-9.4-13.9zM633.3 534.8666666500001c-2 0-4-0.2-5.9-0.5M687.8 534.3666666500001c1.5 0 3 0.2 4.4 0.5"  horiz-adv-x="1024" />

    
    <glyph glyph-name="bianji" unicode="&#58933;" d="M860.745143 573.513143a44.178286 44.178286 0 0 1 62.171428 0l88.356572 88.356571a44.178286 44.178286 0 0 1 0.073143 62.098286L851.894857 883.273143a44.032 44.032 0 0 1-62.025143 0l-88.502857-88.429714a44.032 44.032 0 0 1 0.073143-62.098286l159.305143-159.232zM411.648 121.856a44.105143 44.105143 0 0 1 62.098286 0l356.352 356.278857a44.105143 44.105143 0 0 1 0.073143 62.098286L671.012571 699.318857a44.032 44.032 0 0 1-62.025142 0L252.708571 343.04a44.178286 44.178286 0 0 1 0-62.171429l158.939429-159.012571zM161.938286-2.852571l212.772571 47.689142c23.552 5.266286 28.891429 23.552 11.776 40.594286L217.234286 254.829714c-17.042286 16.969143-35.328 11.702857-40.667429-11.702857l-47.835428-212.845714c-5.266286-23.405714 9.728-38.4 33.206857-33.133714zM987.428571-54.857143H36.571429a36.571429 36.571429 0 1 1 0-73.142857h950.857142a36.571429 36.571429 0 0 1 0 73.142857z"  horiz-adv-x="1024" />

    
    <glyph glyph-name="yongdushijian" unicode="&#59161;" d="M512 864a408 408 0 0 1-294.4-690.56c64-67.2 235.52-210.88 294.4-259.84 58.88 49.28 229.44 192 293.76 259.2A408 408 0 0 1 512 864zM512 896a440 440 0 0 1-317.44-744.64C274.56 67.84 512-128 512-128s236.8 195.52 316.8 278.4A440 440 0 0 1 512 896z m293.76-723.2c-64-66.56-234.88-209.92-293.76-259.2-59.2 49.28-230.08 192-294.4 259.84a408 408 0 1 0 588.16 0zM770.88 560.32L728.32 675.2s-44.48 7.04-88.32 9.28a160 160 0 0 1-66.56 0c-44.8-2.24-87.36-9.28-87.36-9.28l-32-87.04H448a160 160 0 0 1-66.56 0c-44.8-2.24-87.36-9.28-87.36-9.28l-40.96-114.56-29.12-28.16v-137.92l21.44-22.72h21.44v-45.12a37.44 37.44 0 0 1 1.92-21.44 243.52 243.52 0 0 1 42.56 0 37.12 37.12 0 0 1-1.92 21.44v45.44h213.12v-45.12a54.72 54.72 0 0 0 0-21.44 245.12 245.12 0 0 1 42.24 0 37.44 37.44 0 0 1 2.24 21.44v45.12h21.12l21.44 19.84v76.16h106.56v-45.44a54.72 54.72 0 0 0 0-21.44 245.12 245.12 0 0 1 42.24 0 37.44 37.44 0 0 1 2.24 21.44v45.44h21.12l21.44 20.16v140.16z m-270.08 93.44a803.84 803.84 0 0 0 212.16 0l37.76-98.56a1961.92 1961.92 0 0 1-206.72 4.48l-7.36 19.52s-28.48 4.48-61.44 7.36z m-60.16-187.52V512a7.36 7.36 0 0 0 6.72 7.04h71.36a7.36 7.36 0 0 0 6.72-7.04l8.96-46.72s0-3.84-2.56-5.44q-45.12 2.56-90.56 3.2s-0.64 2.56-0.64 3.52z m25.28 96c16.64 0 32-2.88 49.6-4.8-17.6 0-35.2 0-52.48-2.88z m-130.24-199.68H256a7.36 7.36 0 0 0-6.72 7.04V416a7.36 7.36 0 0 0 6.72 8.32h71.36a7.36 7.36 0 0 0 6.72-7.04l8.96-46.72c1.6-2.24-2.88-7.04-7.36-7.04z m-64 96l38.08 98.24a802.88 802.88 0 0 0 137.6 6.08v-3.84l-29.12-28.16v-67.2q-74.88 1.28-147.2-4.16z m312.32-89.28a7.36 7.36 0 0 0-6.72-7.04h-75.84v8.32h81.92z m192 96a7.36 7.36 0 0 0-6.72-7.04h-80.96c-4.48 0-8.96 4.8-6.72 7.04l8.96 46.72a7.36 7.36 0 0 0 6.72 7.04H768c2.24 2.24 6.72-2.24 6.72-7.04z"  horiz-adv-x="1024" />

    
    <glyph glyph-name="renwuliebiao" unicode="&#58905;" d="M872.962729-127.99923H148.995273C66.563335-127.99923 0.003385-61.43928 0.003385 20.992658V747.008112C-0.509615 829.44005 66.050335 896 148.995273 896h724.479455c82.431938 0 148.991888-66.55995 148.991888-148.991888v-725.503454A149.025888 149.025888 0 0 0 872.962729-127.99923z m77.823941 146.43189V749.56811c0 40.44797-32.767975 73.215945-73.215945 73.215945H146.435275c-40.44797 0-73.215945-32.767975-73.215945-73.215945V17.92066c0-40.44797 32.767975-73.215945 73.215945-73.215945h731.64745c39.93597 0.512 72.703945 33.279975 72.703945 73.727945zM256.515192 565.760248h-1.023999c-19.967985 0-36.351973 16.383988-36.351973 36.351973v1.023999c0 19.967985 16.383988 36.351973 36.351973 36.351973h1.023999c19.967985 0 36.351973-16.383988 36.351973-36.351973v-1.023999c0-20.479985-16.383988-36.351973-36.351973-36.351973z m511.999615 0H402.947082c-20.479985 0-36.863972 16.383988-36.863972 36.863973s16.383988 36.863972 36.863972 36.863972h365.567725c20.479985 0 36.863972-16.383988 36.863972-36.863972-0.512-20.991984-16.895987-36.863972-36.863972-36.863973z m-511.999615-220.159834h-1.023999c-19.967985 0-36.351973 16.383988-36.351973 36.351973v1.023999c0 19.967985 16.383988 36.351973 36.351973 36.351972h1.023999c19.967985 0 36.351973-16.383988 36.351973-36.351972v-1.023999c0-20.991984-16.383988-36.351973-36.351973-36.351973z m511.999615 0H402.947082c-20.479985 0-36.863972 16.383988-36.863972 36.863972s16.383988 36.863972 36.863972 36.863972h365.567725c20.479985 0 36.863972-16.383988 36.863972-36.863972S788.482792 345.600414 768.514807 345.600414z m-511.999615-216.575837h-1.023999c-19.967985 0-36.351973 16.383988-36.351973 36.351972V166.400549c0 19.967985 16.383988 36.351973 36.351973 36.351972h1.023999c19.967985 0 36.351973-16.383988 36.351973-36.351972v-1.024c0-19.967985-16.383988-36.351973-36.351973-36.351972z m511.999615 0H402.947082c-20.479985 0-36.863972 16.383988-36.863972 36.863972s16.383988 36.863972 36.863972 36.863972h365.567725c20.479985 0 36.863972-16.383988 36.863972-36.863972s-16.895987-36.863972-36.863972-36.863972z"  horiz-adv-x="1024" />

    
    <glyph glyph-name="moban" unicode="&#58906;" d="M933.744837-127.98848H269.435632a90.750525 90.750525 0 0 0-92.158502 89.598544v87.550577H92.158513a91.198518 91.198518 0 0 0-92.158503 89.598544V806.396336A91.198518 91.198518 0 0 0 92.158513 895.99488h664.309205a91.198518 91.198518 0 0 0 92.158502-89.598544v-87.614576h85.118617a90.558528 90.558528 0 0 0 91.518513-89.598544V-38.389936a90.558528 90.558528 0 0 0-91.518513-89.598544zM620.789923 709.437912H227.836308a44.799272 44.799272 0 1 1 0-89.598544h392.953615a44.799272 44.799272 0 1 1 0 89.598544z m0-191.99688H227.836308a44.799272 44.799272 0 1 1 0-89.598544h392.953615a44.799272 44.799272 0 1 1 0 89.598544z m0-191.99688H227.836308a44.799272 44.799272 0 1 1 0-89.598544h392.953615a44.799272 44.799272 0 1 1 0 89.598544z m312.954914 303.739064h-85.118617v-490.360032a91.198518 91.198518 0 0 0-92.158502-89.598544H269.435632V-38.389936h650.869423a13.375783 13.375783 0 0 1 13.439782 12.799792V629.183216z"  horiz-adv-x="1025" />

    
    <glyph glyph-name="jinhangzhong-" unicode="&#58924;" d="M512.5-64.5c-60.5 0-119.3 11.9-174.6 35.3-53.4 22.6-101.4 54.9-142.6 96.1-41.1 41.1-73.5 89.1-96 142.5C75.9 264.7 64 323.5 64 384s11.9 119.3 35.3 174.6c22.6 53.4 54.9 101.4 96.1 142.6 41.2 41.2 89.1 73.5 142.6 96.1 55.3 23.4 114 35.3 174.6 35.3s119.3-11.9 174.6-35.3c53.4-22.6 101.4-54.9 142.6-96.1 41.2-41.2 73.5-89.1 96.1-142.6 23.4-55.3 35.3-114 35.3-174.6 0-60.5-11.9-119.3-35.3-174.6-22.8-53.4-55.1-101.4-96.3-142.5-41.2-41.2-89.1-73.5-142.6-96.1-55.2-23.4-114-35.3-174.5-35.3z m0 842.5c-53.2 0-104.8-10.4-153.3-30.9-46.9-19.8-89-48.3-125.2-84.4-36.2-36.2-64.6-78.3-84.4-125.2-20.5-48.6-30.9-100.1-30.9-153.3s10.4-104.8 30.9-153.3c19.8-46.9 48.3-89 84.4-125.2 36.2-36.2 78.3-64.6 125.2-84.4 48.6-20.5 100.1-30.9 153.3-30.9s104.8 10.4 153.3 30.9c46.9 19.8 89 48.3 125.2 84.4 36.2 36.2 64.6 78.3 84.4 125.2 20.5 48.6 30.9 100.1 30.9 153.3S896 488.8 875.5 537.3c-19.8 46.9-48.3 89-84.4 125.2-36.2 36.2-78.3 64.6-125.2 84.4-48.6 20.7-100.2 31.1-153.4 31.1zM511.1 361.3h-0.5c-12 0-21.7 9.8-21.7 21.7V619.6c0 12 9.8 21.7 21.7 21.7h0.5c12 0 21.7-9.8 21.7-21.7v-236.5c0.1-12-9.7-21.8-21.7-21.8zM491.3 389.7l0.2 0.5c3.8 11.3 16.2 17.5 27.5 13.7L667.4 354c11.3-3.8 17.5-16.2 13.7-27.5l-0.2-0.5c-3.8-11.3-16.2-17.5-27.5-13.7L505 362.2c-11.3 3.8-17.5 16.2-13.7 27.5z"  horiz-adv-x="1024" />

    
    <glyph glyph-name="zhishu1" unicode="&#59002;" d="M801.391304-16.695651999999995a44.521739 44.521739 0 0 0 5.209044-88.731826L801.391304-105.73913000000005H267.130435a44.521739 44.521739 0 0 0-5.209044 88.731826L267.130435-16.695651999999995h534.260869zM934.956522 896a133.565217 133.565217 0 0 0 133.342608-125.729391L1068.521739 762.434783v-534.26087a133.565217 133.565217 0 0 0-125.729391-133.342609L934.956522 94.60869600000001H133.565217a133.565217 133.565217 0 0 0-133.342608 125.729391L0 228.17391299999997V762.434783A133.565217 133.565217 0 0 0 125.729391 895.777391L133.565217 896h801.391305z m-116.335305-231.958261l-4.185043-3.695304-132.719304-132.674783a44.521739 44.521739 0 0 0-46.169044-10.551652l-5.209043 2.226087-120.653913 60.326956a44.521739 44.521739 0 0 1-52.090435-9.082434l-3.472696-4.006957-83.033043-110.725565a44.521739 44.521739 0 0 0-55.652174-13.04487l-4.630261 2.671305-63.488 42.340174-4.496696 2.671304a44.521739 44.521739 0 0 1-49.062956-73.638957l4.140521-3.116521 133.565218-89.043479a44.521739 44.521739 0 0 1 56.854261 6.233044L391.791304 335.02608699999996l88.954435 118.605913a44.521739 44.521739 0 0 0 50.665739 15.226435l4.897392-2.092522 111.616-55.830261a44.521739 44.521739 0 0 1 47.104 4.585739l4.274087 3.784348 178.086956 178.086957 3.695304 4.185043a44.521739 44.521739 0 0 1-62.464 62.464z"  horiz-adv-x="1068" />

    
    <glyph glyph-name="quyu1" unicode="&#59227;" d="M815.4624 896A279.6544 279.6544 0 0 1 537.6 612.4032c0-118.8864 75.6736-253.8496 139.9808-345.2416 50.5344-70.9632 103.3216-130.3552 126.2592-157.8496a19.456 19.456 0 0 1 11.52-6.8096 15.7184 15.7184 0 0 1 11.4176 6.8096 1751.04 1751.04 0 0 1 126.2592 157.8496c64.256 91.392 140.032 226.4064 140.032 345.2416A279.7056 279.7056 0 0 1 815.36 896z m0-396.7488a119.04 119.04 0 1 0 119.04 119.04 119.3472 119.3472 0 0 0-119.04-119.04z m-119.1424-350.72l-615.7824 32.8704 71.68 250.88a28.3136 28.3136 0 0 0 26.5728 21.6064l317.44 10.24a981.2992 981.2992 0 0 1 76.1856-157.9008 1757.8496 1757.8496 0 0 1 123.904-157.696z m-200.1408-276.48l-464.896 2.7648a24.6272 24.6272 0 0 0-24.2176 11.9808C0-108.4928 0-98.816 0-89.1392l62.8224 218.7776 598.6304-39.8336L496.64-127.8976z m574.6688 182.6816l-185.088 17.152q58.9312 72.2944 115.3536 146.6368c2.3552 9.5232 9.6768 14.3872 14.4384 23.9616z m36.5056-139.008c0-2.3552 2.4576-7.2192 2.4576-9.6256a31.7952 31.7952 0 0 0-31.4368-31.2832H543.9488l168.6016 204.8 368.3328-67.9424 26.6752-96.1024z"  horiz-adv-x="1109" />

    
    <glyph glyph-name="xiazai1" unicode="&#58919;" d="M256 96h512v-64H256zM512 192l256 192h-128V640h-256v-256H256z"  horiz-adv-x="1024" />

    
    <glyph glyph-name="daochubaogao" unicode="&#59344;" d="M683.37 832.632H251.341v-776.823h648.027V625.437H683.37V832.632z m162.013-465.783v-51.93L629.385 159.668V262.991H413.356V418.255h216.029V522.114l215.998-155.265zM737.353 832.632v-155.267h162.016L737.353 832.632zM201.498 723.574h-76.866v-787.206h624.162v76.361H201.498V723.574z"  horiz-adv-x="1024" />

    
    <glyph glyph-name="sutpc-lukouliuliang-012" unicode="&#59257;" d="M512 384m-512 0a512 512 0 1 1 1024 0 512 512 0 1 1-1024 0ZM512 384m-389.818182 0a389.818182 389.818182 0 1 1 779.636364 0 389.818182 389.818182 0 1 1-779.636364 0ZM122.181818 384A389.818182 389.818182 0 1 1 512 773.818182 389.818182 389.818182 0 0 1 122.181818 384z m46.545455-43.054545c101.236364-58.647273 172.450909-4.654545 403.083636 109.847272 172.916364 85.876364 256 0 286.021818-50.967272V384a346.298182 346.298182 0 0 0-689.338182-43.054545zM490.123636 742.6327269999999a221.556364 221.556364 0 0 0 67.956364 0c15.592727-3.258182 31.185455-5.818182 46.545455-10.007272a33.745455 33.745455 0 0 0 23.272727-23.272728c6.516364-18.385455 13.265455-36.770909 20.247273-54.923636 0-3.025455 5.12-7.68 7.214545-7.447273 14.894545 1.861818 21.876364-6.516364 26.530909-18.618182a23.272727 23.272727 0 0 0 0-10.007272l-18.152727-5.12a175.243636 175.243636 0 0 0 2.327273-19.316364v-89.367273a25.367273 25.367273 0 0 0-5.352728-14.894545 146.385455 146.385455 0 0 0-50.501818 0c-11.636364 7.68-4.421818 20.247273-8.378182 30.72h-153.134545c-3.025455-10.938182-4.887273-29.323636-8.378182-30.72a148.48 148.48 0 0 0-51.898182 0 28.858182 28.858182 0 0 0-5.818182 16.989091V544.581818v69.818182l-16.756363 4.421818a15.127273 15.127273 0 0 0 0 7.912727c4.189091 13.032727 10.705455 23.272727 26.763636 20.712728 2.094545 0 5.585455 3.956364 6.749091 6.749091 5.585455 14.661818 11.403636 29.090909 15.592727 44.218181a53.76 53.76 0 0 0 48.174546 39.796364c8.610909 1.629091 17.454545 2.792727 26.298182 4.189091z m-69.818181-99.607272a488.727273 488.727273 0 0 1 206.894545 0c-5.818182 17.687273-11.636364 33.745455-16.058182 50.036363a26.298182 26.298182 0 0 1-26.298182 21.410909c-32.814545 1.396364-65.629091 2.56-98.443636 2.792728a129.629091 129.629091 0 0 1-32.349091-4.887273 19.549091 19.549091 0 0 1-11.636364-8.145455c-7.68-19.549091-14.429091-39.563636-23.272727-61.207272z m13.498181-76.101819a69.818182 69.818182 0 0 1 16.989091 1.396364 15.592727 15.592727 0 0 1 10.007273 7.447273c0 2.327273-3.025455 8.378182-6.050909 9.774545a341.876364 341.876364 0 0 1-39.563636 15.825455c-6.749091 2.094545-14.196364 1.861818-16.29091-7.912728-3.258182-13.963636 0-21.643636 10.24-23.272727a221.556364 221.556364 0 0 1 24.669091-2.56z m182.225455 0a170.356364 170.356364 0 0 1 24.901818 3.258182c11.869091 2.56 9.309091 12.567273 9.076364 20.945455s-4.654545 12.567273-11.170909 10.705454a349.090909 349.090909 0 0 1-47.709091-18.385454c-6.981818-3.490909-4.421818-12.8 3.490909-14.661818a183.621818 183.621818 0 0 1 21.410909-1.861819z m0 0"  horiz-adv-x="1024" />

    
    <glyph glyph-name="sutpc-qidian1" unicode="&#59283;" d="M509.452736 381.452736m-509.452736 0a509.452736 509.452736 0 1 1 1018.905473 0 509.452736 509.452736 0 1 1-1018.905473 0ZM509.452736 890.905473C229.253731 890.905473 0 661.651741 0 381.452736s229.253731-509.452736 509.452736-509.452736 509.452736 229.253731 509.452737 509.452736-229.253731 509.452736-509.452737 509.452737z m0-927.20398c-229.253731 0-417.751244 188.497512-417.751243 417.751243S275.104478 794.109453 504.358209 794.109453 917.014925 610.706468 917.014925 381.452736c5.094527-229.253731-178.308458-412.656716-407.562189-417.751243zM672.477612 503.721393H509.452736v-178.308458c0-45.850746 20.378109-66.228856 66.228856-66.228855h101.890547c50.945274 0 66.228856 25.472637 71.323383 50.945273 5.094527 15.283582 5.094527 40.756219 10.189055 76.417911v5.094527h-5.094527c-15.283582 5.094527-30.567164 10.189055-40.756219 15.283582l-5.094528 10.189055v-15.283582c0-30.567164-5.094527-50.945274-5.094527-66.228856 0-10.189055-5.094527-15.283582-25.472637-15.283582h-86.606965c-15.283582 0-20.378109 5.094527-20.378109 20.378109V452.776119h101.890547V437.492537h56.039801V641.273632H499.263682v-56.039801h173.21393v-81.512438zM764.179104 218.427861c-91.701493 0-183.402985-5.094527-264.915422 0-25.472637 0-50.945274 5.094527-71.323383 10.189054v81.512438h76.41791v56.039801H422.845771V432.39801h81.512438V488.437811H407.562189V544.477612h86.606965v50.945274H407.562189V671.840796H351.522388v-71.323383H264.915423v-56.039801h86.606965V488.437811H244.537313v-56.039801h122.268657v-163.024876c-15.283582 15.283582-25.472637 30.567164-35.661691 45.850747 5.094527 25.472637 5.094527 61.134328 5.094527 91.701492v10.189055l-56.039801 5.094527v-10.189055c0-91.701493-15.283582-157.930348-40.756219-203.781094v-10.189055c10.189055-15.283582 15.283582-30.567164 20.37811-45.850746l5.094527-15.283582 10.189055 15.283582c15.283582 25.472637 30.567164 56.039801 35.661691 91.701493 35.661692-50.945274 91.701493-76.41791 168.119403-76.417911h270.00995v5.094527c5.094527 10.189055 10.189055 25.472637 15.283582 40.756219l5.094528 10.189055-5.094528-5.094527z"  horiz-adv-x="1024" />

    
    </font>
</defs>
</svg>
